<?xml version="1.0" encoding="UTF-8"?>
<svg width="50px" height="56px" viewBox="0 0 50 56" version="1.1" xmlns="http://www.w3.org/2000/svg" xmlns:xlink="http://www.w3.org/1999/xlink">
    <!-- Generator: Sketch 61.2 (89653) - https://sketch.com -->
    <title>Group 22</title>
    <desc>Created with Sketch.</desc>
    <defs>
        <polygon id="path-1" points="0 0.263045872 49.8829897 0.263045872 49.8829897 55.4861872 0 55.4861872"></polygon>
    </defs>
    <g id="Indigov-–-Landing-Page" stroke="none" stroke-width="1" fill="none" fill-rule="evenodd">
        <g id="Landing_Direction_FINAL_v1-Copy-4" transform="translate(-1140.000000, -914.000000)">
            <g id="Section-01-Response" transform="translate(0.000000, 790.000000)">
                <g id="Group-22" transform="translate(1140.000000, 124.000000)">
                    <path d="M43.7925,30.9800088 C43.89,30.9650154 43.98,30.9450242 44.07,30.9200352 C44.16,30.8950462 44.25,30.8650594 44.33325,30.8300748 C44.415,30.7950902 44.49075,30.75011 44.55825,30.7051298 C44.83575,30.5202113 45,30.2603257 45,30.0004402 C45,29.9354688 44.985,29.8654996 44.97,29.805526 C44.9475,29.7405546 44.9175,29.6755832 44.8875,29.6156096 C44.85,29.555636 44.7975,29.4956624 44.74575,29.4456845 C44.6925,29.3907087 44.625,29.3357329 44.55825,29.2907527 C44.49075,29.2457725 44.415,29.2057901 44.33325,29.1658077 C44.25,29.1308231 44.16,29.1008363 44.07,29.0758473 C43.98,29.0508583 43.89,29.0308671 43.7925,29.0208715 C43.30575,28.9509023 42.7875,29.0608539 42.435,29.2907527 C42.36825,29.3357329 42.30825,29.3907087 42.255,29.4456845 C42.195,29.4956624 42.15075,29.555636 42.11325,29.6156096 C42.075,29.6755832 42.045,29.7405546 42.03,29.805526 C42.0075,29.8654996 42,29.9354688 42,30.0004402 C42,30.2603257 42.1575,30.5202113 42.435,30.7051298 C42.71325,30.8900484 43.1025,31 43.5,31 C43.5975,31 43.695,30.9900044 43.7925,30.9800088" id="Fill-1" fill="#212121"></path>
                    <path d="M33.5025097,46 C33.757548,46 34.0125864,45.9549835 34.2526225,45.8649506 C34.9652297,45.58985 35.2127669,44.974625 34.8002049,44.4994512 C34.3801417,44.0192756 33.465004,43.8592171 32.7448957,44.1343177 C32.0322885,44.4094183 31.7847513,45.0246433 32.2055646,45.4998171 C32.4823562,45.8199341 32.9856819,46 33.5025097,46" id="Fill-3" fill="#212121"></path>
                    <path d="M41.4996383,39 C42.017585,39 42.5205189,38.8199341 42.7982584,38.4998171 C43.2111146,38.0246433 42.971658,37.4094183 42.2502858,37.1343177 C41.5379213,36.8592171 40.6138742,37.0192756 40.2017687,37.4994512 C39.7889126,37.974625 40.0283692,38.58985 40.7489908,38.8649506 C40.9824421,38.9549835 41.2444181,39 41.4996383,39" id="Fill-5" fill="#212121"></path>
                    <path d="M26.74425,47.4441962 C26.6925,47.3891678 26.625,47.3341393 26.55675,47.2891161 C26.48925,47.2440928 26.415,47.1990696 26.33175,47.1640515 C26.25,47.1290334 26.16,47.0990179 26.07,47.0740049 C25.97925,47.048992 25.88925,47.0289817 25.79175,47.0189765 C25.30425,46.9539429 24.7875,47.0589972 24.435,47.2891161 C24.36675,47.3341393 24.30675,47.3891678 24.255,47.4441962 C24.195,47.494222 24.14925,47.5542531 24.11175,47.6142841 C24.07425,47.6743151 24.04425,47.7393487 24.03,47.7993797 C24.0075,47.8644133 24,47.9294469 24,47.9994831 C24,48.0645167 24.0075,48.1295503 24.03,48.1945839 C24.04425,48.2546149 24.07425,48.3196485 24.11175,48.3796795 C24.14925,48.4397105 24.195,48.4997415 24.255,48.55477 C24.30675,48.6097984 24.36675,48.6598242 24.435,48.7048475 C24.72,48.8899431 25.1025,49 25.5,49 C25.5975,49 25.695,48.9899948 25.79175,48.9799897 C25.88925,48.9649819 25.97925,48.9449716 26.07,48.9199586 C26.16,48.8949457 26.25,48.8649302 26.33175,48.8299121 C26.415,48.794894 26.48925,48.7498708 26.55675,48.7048475 C26.83425,48.5197519 27,48.2596175 27,47.9994831 C27,47.9294469 26.98425,47.8644133 26.97,47.7993797 C26.9475,47.7393487 26.91675,47.6743151 26.88,47.6142841 C26.8425,47.5542531 26.79675,47.494222 26.74425,47.4441962" id="Fill-7" fill="#212121"></path>
                    <path d="M10.03,43.196005 C10.0525,43.2559301 10.07575,43.3208489 10.1125,43.380774 C10.15,43.4406991 10.2025,43.5006242 10.255,43.5555556 C10.3075,43.6104869 10.375,43.6604245 10.4425,43.7053683 C10.72,43.8901373 11.1025,44 11.5,44 C11.8975,44 12.28,43.8901373 12.565,43.7053683 C12.6325,43.6604245 12.6925,43.6104869 12.7525,43.5555556 C12.805,43.5006242 12.85,43.4406991 12.88825,43.380774 C12.925,43.3208489 12.955,43.2559301 12.97,43.196005 C12.9925,43.1310861 13,43.0661673 13,43.0012484 C13,42.9363296 12.9925,42.866417 12.97,42.8014981 C12.955,42.741573 12.925,42.6766542 12.88825,42.6167291 C12.85,42.556804 12.805,42.4968789 12.7525,42.4469413 C12.6925,42.39201 12.6325,42.3370787 12.565,42.2921348 C12.49,42.247191 12.415,42.2072409 12.3325,42.1672909 C12.25,42.1323346 12.16825,42.102372 12.0775,42.0774032 C11.9875,42.0524345 11.89,42.0324594 11.79325,42.0224719 C11.60575,41.9925094 11.4025,41.9925094 11.2075,42.0224719 C11.11,42.0324594 11.02,42.0524345 10.93,42.0774032 C10.84,42.102372 10.75,42.1323346 10.66825,42.1672909 C10.585,42.2072409 10.51075,42.247191 10.4425,42.2921348 C10.375,42.3370787 10.3075,42.39201 10.255,42.4469413 C10.2025,42.4968789 10.15,42.556804 10.1125,42.6167291 C10.07575,42.6766542 10.0525,42.741573 10.03,42.8014981 C10.0075,42.866417 10,42.9363296 10,43.0012484 C10,43.0661673 10.0075,43.1310861 10.03,43.196005" id="Fill-9" fill="#212121"></path>
                    <path d="M6.49693789,26 C7.16406599,26 7.77122752,25.704992 7.95037766,25.2599799 C8.16101024,24.7249653 7.68127767,24.1749504 6.8867206,24.0349466 C6.08466772,23.8899427 5.26687361,24.2099514 5.04949479,24.7399658 C4.84036137,25.2749803 5.31259812,25.8249952 6.114651,25.964999 C6.24207997,25.9899997 6.36950893,26 6.49693789,26" id="Fill-11" fill="#212121"></path>
                    <path d="M6.50129627,36 C6.62891339,36 6.75653051,35.9850241 6.88414763,35.9650562 C7.68738479,35.8202892 8.16031882,35.276165 7.95012592,34.7420246 C7.73242613,34.2078843 6.91417519,33.8933905 6.11093802,34.0331655 C5.31520775,34.1779325 4.83476683,34.7270487 5.05246662,35.2561971 C5.22512508,35.705474 5.83318312,36 6.50129627,36" id="Fill-13" fill="#212121"></path>
                    <path d="M11.5,18 C11.8975,18 12.28,17.8940731 12.565,17.7074401 C12.6325,17.6620429 12.6925,17.6065574 12.7525,17.5510719 C12.805,17.5006305 12.85,17.4401009 12.88825,17.3795712 C12.925,17.3190416 12.955,17.2534678 12.97,17.1929382 C12.9925,17.1273644 13,17.0617907 13,16.9962169 C13,16.7288777 12.8425,16.4665826 12.565,16.2799496 C12.0025,15.9066835 10.9975,15.9066835 10.4425,16.2799496 C10.1575,16.4665826 10,16.7288777 10,16.9962169 C10,17.258512 10.1575,17.5208071 10.4425,17.7074401 C10.72,17.8940731 11.1025,18 11.5,18" id="Fill-15" fill="#212121"></path>
                    <g id="Group-19">
                        <mask id="mask-2" fill="white">
                            <use xlink:href="#path-1"></use>
                        </mask>
                        <g id="Clip-18"></g>
                        <path d="M19.6579381,5.24802202 L19.6579381,1.8042789 L29.4517526,1.8042789 L29.4517526,5.01271927 C28.0507216,4.76611376 26.6115464,4.62996697 25.1409278,4.62996697 C23.2558763,4.62996697 21.4228866,4.8483156 19.6579381,5.24802202 M41.8661856,11.136756 L44.9553608,8.05778349 L46.666701,9.76398532 L47.7605155,8.67378349 L43.2435052,4.1722055 L42.1502062,5.26189358 L43.8620619,6.96809541 L40.6914433,10.1282422 C37.8965979,7.87077431 34.6007216,6.20978349 30.9981443,5.33433394 L30.9981443,1.8042789 L33.5754639,1.8042789 L33.5754639,0.262994495 L30.9981443,0.262994495 L18.1115464,0.262994495 L15.5342268,0.262994495 L15.5342268,1.8042789 L18.1115464,1.8042789 L18.1115464,5.64978349 C7.88268041,8.67635229 0.398659794,18.1264807 0.398659794,29.2905174 C0.398659794,35.877967 2.97237113,42.0703339 7.64556701,46.7280954 L8.73886598,45.6384073 C4.35742268,41.2719486 1.94505155,35.4659303 1.94505155,29.2905174 C1.94505155,16.5425541 12.3502062,6.17125138 25.1409278,6.17125138 C37.931134,6.17125138 48.3368041,16.5425541 48.3368041,29.2905174 C48.3368041,42.0384807 37.931134,52.4097835 25.1409278,52.4097835 L4.00639175,52.4097835 L4.00639175,50.875178 L-0.000309278351,53.1804257 L4.00639175,55.4861872 L4.00639175,53.9510679 L25.1409278,53.9510679 C38.7837113,53.9510679 49.8831959,42.888756 49.8831959,29.2905174 C49.8831959,22.1153248 46.7904124,15.6475817 41.8661856,11.136756" id="Fill-17" fill="#212121" mask="url(#mask-2)"></path>
                    </g>
                    <path d="M28.5139687,29.6461153 C28.5139687,31.7210506 26.9372895,33.408792 24.9995047,33.408792 C23.0622152,33.408792 21.4860313,31.7210506 21.4860313,29.6461153 C21.4860313,27.57118 23.0622152,25.8834387 24.9995047,25.8834387 C26.9372895,25.8834387 28.5139687,27.57118 28.5139687,29.6461153 L28.5139687,29.6461153 Z M24.256489,10 L24.256489,24.3580006 C21.8520904,24.7441337 20,26.9649298 20,29.6461153 C20,32.5983367 22.2429166,35 24.9995047,35 C27.7570834,35 30,32.5983367 30,29.6461153 C30,26.9649298 28.1479096,24.7441337 25.7425203,24.3580006 L25.7425203,10 L24.256489,10 Z" id="Fill-20" fill="#212121"></path>
                </g>
            </g>
        </g>
    </g>
</svg>