<?xml version="1.0" encoding="UTF-8"?>
<svg width="166px" height="43px" viewBox="0 0 166 43" version="1.1" xmlns="http://www.w3.org/2000/svg" xmlns:xlink="http://www.w3.org/1999/xlink">
    <!-- Generator: Sketch 61.2 (89653) - https://sketch.com -->
    <title>logo-slack</title>
    <desc>Created with Sketch.</desc>
    <g id="Indigov-–-Landing-Page" stroke="none" stroke-width="1" fill="none" fill-rule="evenodd">
        <g id="Landing_Direction_FINAL_v1-Copy-4" transform="translate(-588.000000, -2031.000000)" fill-rule="nonzero">
            <g id="logo-slack" transform="translate(588.000000, 2031.000000)">
                <g id="Group" transform="translate(52.762000, 0.719000)" fill="#010101">
                    <path d="M0.406938166,32.9208404 L2.46449069,28.1198845 C4.65921338,29.7659265 7.67695708,30.7261177 10.5575306,30.7261177 C12.7522533,30.7261177 14.123955,29.9030967 14.123955,28.6685652 C14.123955,25.1021408 1.09278901,27.8455442 0.955618839,19.0666534 C0.955618839,14.5400378 4.93355372,11.1107836 10.5575306,11.1107836 C13.9867848,11.1107836 17.2788689,11.9338046 19.7479319,13.854187 L17.8275495,18.7923131 C15.6328268,17.4206114 12.8894235,16.32325 10.2831903,16.32325 C8.49997809,16.32325 7.40261675,17.146271 7.40261675,18.2436324 C7.40261675,21.6728866 20.5709529,19.7525042 20.7081231,28.2570547 C20.7081231,32.9208404 16.7301882,36.0757543 11.2433815,36.0757543 C7.12827641,35.9385841 3.2875117,34.9783929 0.406938166,32.9208404 M79.9656358,26.3366723 C78.8682744,28.1198845 76.9478921,29.354416 74.7531694,29.354416 C71.4610853,29.354416 68.717682,26.6110126 68.717682,23.3189286 C68.717682,20.0268446 71.4610853,17.2834412 74.7531694,17.2834412 C76.9478921,17.2834412 78.8682744,18.5179727 79.9656358,20.3011849 L85.7267828,17.146271 C83.5320601,13.3055063 79.4169551,10.6992731 74.7531694,10.6992731 C67.894661,10.6992731 62.2706841,16.32325 62.2706841,23.1817584 C62.2706841,30.0402669 67.894661,35.6642438 74.7531694,35.6642438 C79.4169551,35.6642438 83.5320601,33.0580106 85.7267828,29.2172458 L79.9656358,26.3366723 Z" id="Shape"></path>
                    <rect id="Rectangle" x="23.589" y="0.412" width="7.133" height="34.978"></rect>
                    <polygon id="Path" points="88.47 0.412 88.47 35.527 95.603 35.527 95.603 24.965 104.108 35.527 113.298 35.527 102.462 23.045 112.475 11.385 103.696 11.385 95.603 20.987 95.603 0.412"></polygon>
                    <path d="M51.9829214,26.4738425 C50.8855601,28.1198845 48.8280076,29.4915862 46.3589445,29.4915862 C43.0668605,29.4915862 40.3234571,26.7481828 40.3234571,23.4560988 C40.3234571,20.1640147 43.0668605,17.4206114 46.3589445,17.4206114 C48.8280076,17.4206114 50.8855601,18.7923131 51.9829214,20.4383551 L51.9829214,26.4738425 Z M51.9829214,11.385124 L51.9829214,14.2656975 C50.7483899,12.3453151 47.8678164,10.9736135 44.8500727,10.9736135 C38.5402449,10.9736135 33.6021189,16.4604202 33.6021189,23.4560988 C33.6021189,30.4517774 38.5402449,36.0757543 44.8500727,36.0757543 C47.8678164,36.0757543 50.7483899,34.7040526 51.9829214,32.7836702 L51.9829214,35.6642438 L59.1157702,35.6642438 L59.1157702,11.385124 C59.1157702,11.385124 51.9829214,11.385124 51.9829214,11.385124 Z" id="Shape"></path>
                </g>
                <path d="M9.00006094,27.0554454 C9.00006094,29.5245084 7.07967858,31.4448908 4.61061555,31.4448908 C2.14155252,31.4448908 0.084,29.5245084 0.084,27.0554454 C0.084,24.5863824 2.14155252,22.666 4.47344538,22.666 L8.86289077,22.666 L8.86289077,27.0554454 L9.00006094,27.0554454 Z M11.1947836,27.0554454 C11.1947836,24.5863824 13.115166,22.666 15.584229,22.666 C18.053292,22.666 19.9736744,24.5863824 19.9736744,27.0554454 L19.9736744,38.0290588 C19.9736744,40.4981219 18.053292,42.4185042 15.584229,42.4185042 C13.115166,42.4185042 11.1947836,40.4981219 11.1947836,38.0290588 L11.1947836,27.0554454 L11.1947836,27.0554454 Z" id="Shape" fill="#E01E5A"></path>
                <path d="M15.584229,9.36091626 C13.115166,9.36091626 11.1947836,7.4405339 11.1947836,4.97147088 C11.1947836,2.50240785 13.115166,0.58202549 15.584229,0.58202549 C18.053292,0.58202549 19.9736744,2.50240785 19.9736744,4.97147088 L19.9736744,9.36091626 L15.584229,9.36091626 Z M15.584229,11.555639 C18.053292,11.555639 19.9736744,13.4760213 19.9736744,15.9450843 C19.9736744,18.4141474 18.053292,20.3345297 15.584229,20.3345297 L4.47344538,20.3345297 C2.00438236,20.3345297 0.084,18.4141474 0.084,15.9450843 C0.084,13.4760213 2.00438236,11.555639 4.47344538,11.555639 L15.584229,11.555639 L15.584229,11.555639 Z" id="Shape" fill="#36C5F0"></path>
                <path d="M33.2789538,16.0822545 C33.2789538,13.6131915 35.1993362,11.6928091 37.6683992,11.6928091 C40.1374622,11.6928091 42.0578446,13.6131915 42.0578446,16.0822545 C42.0578446,18.5513175 40.1374622,20.4716999 37.6683992,20.4716999 L33.2789538,20.4716999 L33.2789538,16.0822545 Z M31.0842311,16.0822545 C31.0842311,18.5513175 29.1638488,20.4716999 26.6947857,20.4716999 C24.2257227,20.4716999 22.3053403,18.5513175 22.3053403,16.0822545 L22.3053403,4.97147088 C22.3053403,2.50240785 24.2257227,0.58202549 26.6947857,0.58202549 C29.1638488,0.58202549 31.0842311,2.50240785 31.0842311,4.97147088 L31.0842311,16.0822545 Z" id="Shape" fill="#2EB67D"></path>
                <path d="M26.6947857,33.7767836 C29.1638488,33.7767836 31.0842311,35.697166 31.0842311,38.166229 C31.0842311,40.635292 29.1638488,42.5556744 26.6947857,42.5556744 C24.2257227,42.5556744 22.3053403,40.635292 22.3053403,38.166229 L22.3053403,33.7767836 L26.6947857,33.7767836 Z M26.6947857,31.4448908 C24.2257227,31.4448908 22.3053403,29.5245084 22.3053403,27.0554454 C22.3053403,24.5863824 24.2257227,22.666 26.6947857,22.666 L37.8055694,22.666 C40.2746324,22.666 42.1950147,24.5863824 42.1950147,27.0554454 C42.1950147,29.5245084 40.2746324,31.4448908 37.8055694,31.4448908 L26.6947857,31.4448908 Z" id="Shape" fill="#ECB22E"></path>
            </g>
        </g>
    </g>
</svg>