<?xml version="1.0" encoding="UTF-8"?>
<svg width="211px" height="48px" viewBox="0 0 211 48" version="1.1" xmlns="http://www.w3.org/2000/svg" xmlns:xlink="http://www.w3.org/1999/xlink">
    <!-- Generator: Sketch 61.2 (89653) - https://sketch.com -->
    <title>logo-opentable</title>
    <desc>Created with Sketch.</desc>
    <g id="Indigov-–-Landing-Page" stroke="none" stroke-width="1" fill="none" fill-rule="evenodd">
        <g id="Landing_Direction_FINAL_v1-Copy-4" transform="translate(-798.000000, -2029.000000)" fill-rule="nonzero">
            <g id="logo-opentable" transform="translate(798.000000, 2029.000000)">
                <path d="M41.922741,0.713849319 C29.0170557,0.713849319 18.5566581,11.1742469 18.5566581,24.0799322 C18.5566581,36.9856176 29.0170557,47.4460152 41.922741,47.4460152 C54.8284264,47.4460152 65.2888239,36.9856176 65.2888239,24.0799322 C65.2888239,11.1742469 54.8284264,0.713849319 41.922741,0.713849319 Z M41.922741,29.921453 C38.6623574,29.921453 36.0812203,27.3403159 36.0812203,24.0799322 C36.0812203,20.8195486 38.6623574,18.2384115 41.922741,18.2384115 C45.1831247,18.2384115 47.7642617,20.8195486 47.7642617,24.0799322 C47.7642617,27.2044666 45.0472754,29.921453 41.922741,29.921453 Z M0.896246596,24.0799322 C0.896246596,20.8195486 3.47738366,18.2384115 6.73776733,18.2384115 C9.99815099,18.2384115 12.5792881,20.8195486 12.5792881,24.0799322 C12.5792881,27.3403159 9.99815099,29.921453 6.73776733,29.921453 C3.47738366,29.921453 0.896246596,27.2044666 0.896246596,24.0799322 L0.896246596,24.0799322 Z" id="Shape" fill="#DA3743"></path>
                <path d="M120.987045,19.5969047 C124.519127,19.5969047 127.100264,22.1780418 127.100264,25.7101241 C127.100264,25.8459734 127.100264,26.3893707 127.100264,26.52522 C127.100264,26.9327679 126.692716,27.0686173 126.421018,27.0686173 L117.86251,27.0686173 C117.86251,28.6988091 119.221004,30.1931516 121.122894,30.1931516 C122.481387,30.1931516 123.432333,29.6497543 123.97573,29.2422064 C124.247429,28.9705077 124.654976,28.9705077 124.790826,29.2422064 L125.87762,30.7365489 C126.149319,31.0082475 126.149319,31.2799462 125.87762,31.5516448 C124.654976,32.50259 123.024785,33.3176859 120.851196,33.3176859 C116.911565,33.3176859 114.05873,30.1931516 114.05873,26.3893707 C114.330428,22.721439 117.047415,19.5969047 120.987045,19.5969047 Z M123.432333,24.8950282 C123.432333,23.536535 122.345538,22.5855897 120.851196,22.5855897 C119.221004,22.5855897 118.134209,23.536535 117.99836,24.8950282 L123.432333,24.8950282 Z M155.764471,14.4346306 L142.179539,14.4346306 C141.90784,14.4346306 141.636141,14.7063292 141.636141,14.9780278 L141.636141,17.2874663 C141.636141,17.5591649 141.90784,17.8308635 142.179539,17.8308635 L147.070114,17.8308635 L147.070114,32.6384394 C147.070114,32.910138 147.341813,33.1818366 147.613511,33.1818366 L150.330498,33.1818366 C150.602196,33.1818366 150.873895,32.910138 150.873895,32.6384394 L150.873895,17.8308635 L155.764471,17.8308635 C156.036169,17.8308635 156.307868,17.5591649 156.307868,17.2874663 L156.307868,14.9780278 C156.307868,14.7063292 156.172019,14.4346306 155.764471,14.4346306 Z M176.277718,19.5969047 C174.919225,19.5969047 173.560731,19.8686033 173.017334,20.140302 L173.017334,15.1138772 C173.017334,14.8421785 172.745635,14.4346306 172.338088,14.4346306 L170.028649,14.4346306 C169.75695,14.4346306 169.349403,14.7063292 169.349403,15.1138772 L169.349403,32.6384394 C169.349403,33.0459873 169.621101,33.3176859 170.028649,33.3176859 L170.979594,33.3176859 C170.979594,33.3176859 170.979594,33.3176859 170.979594,33.3176859 L171.251293,33.3176859 C171.658841,33.3176859 171.93054,33.0459873 171.93054,32.6384394 L171.93054,31.6874941 L171.93054,31.6874941 C171.93054,31.6874941 173.424882,33.7252339 176.413567,33.7252339 C180.081499,33.7252339 182.662636,30.6006996 182.662636,26.7969186 C182.662636,22.5855897 180.217348,19.5969047 176.277718,19.5969047 Z M175.87017,30.1931516 C174.104129,30.1931516 173.153183,29.106357 172.881485,28.2912611 L172.881485,23.6723843 C172.881485,23.6723843 173.968279,22.8572884 175.598471,22.8572884 C177.77206,22.8572884 178.858855,24.6233295 178.858855,26.52522 C179.130553,28.4271105 178.043759,30.1931516 175.87017,30.1931516 Z M198.557006,19.5969047 C202.089088,19.5969047 204.670226,22.1780418 204.670226,25.7101241 C204.670226,25.8459734 204.670226,26.3893707 204.670226,26.52522 C204.670226,26.9327679 204.262678,27.0686173 203.990979,27.0686173 L195.432472,27.0686173 C195.432472,28.6988091 196.790965,30.1931516 198.692855,30.1931516 C200.051349,30.1931516 201.002294,29.6497543 201.545691,29.2422064 C201.81739,28.9705077 202.224938,28.9705077 202.360787,29.2422064 L203.447582,30.7365489 C203.71928,31.0082475 203.71928,31.2799462 203.447582,31.5516448 C202.224938,32.50259 200.594746,33.3176859 198.421157,33.3176859 C194.481527,33.3176859 191.628691,30.1931516 191.628691,26.3893707 C191.76454,22.721439 194.617376,19.5969047 198.557006,19.5969047 Z M201.002294,24.8950282 C201.002294,23.536535 199.915499,22.5855897 198.421157,22.5855897 C196.790965,22.5855897 195.70417,23.536535 195.568321,24.8950282 L201.002294,24.8950282 Z M105.771921,19.5969047 C103.054935,19.5969047 101.560592,21.4987952 101.424743,21.6346445 L101.424743,20.5478499 C101.424743,20.140302 101.153044,19.8686033 100.745496,19.8686033 L99.3870031,19.8686033 C98.9794551,19.8686033 98.7077565,20.140302 98.7077565,20.5478499 L98.7077565,38.0724121 C98.7077565,38.3441108 98.9794551,38.7516587 99.3870031,38.7516587 L101.696442,38.7516587 C101.96814,38.7516587 102.375688,38.4799601 102.375688,38.0724121 L102.375688,33.0459873 C102.919085,33.3176859 104.277579,33.5893846 105.636072,33.5893846 C109.575702,33.5893846 112.292688,30.4648502 112.292688,26.6610693 C112.156839,22.4497404 109.439853,19.5969047 105.771921,19.5969047 Z M105.092674,30.1931516 C103.462483,30.1931516 102.375688,29.3780557 102.375688,29.3780557 L102.375688,24.6233295 C102.647387,23.8082336 103.598332,22.721439 105.364373,22.721439 C107.402113,22.721439 108.488907,24.4874802 108.488907,26.3893707 C108.488907,28.4271105 107.266264,30.1931516 105.092674,30.1931516 Z M136.881415,19.5969047 C134.300278,19.5969047 133.077634,20.9553979 132.534237,21.4987952 L132.534237,20.5478499 C132.534237,20.140302 132.262538,19.8686033 131.85499,19.8686033 L130.360648,19.8686033 C130.088949,19.8686033 129.681401,20.140302 129.681401,20.5478499 L129.681401,32.6384394 C129.681401,33.0459873 129.9531,33.3176859 130.360648,33.3176859 L132.534237,33.3176859 C133.213484,33.3176859 133.349333,33.1818366 133.349333,32.6384394 L133.349333,25.0308775 C133.621032,24.0799322 134.571977,22.9931377 136.202169,22.9931377 C137.83236,22.9931377 138.511607,24.0799322 138.511607,25.8459734 L138.511607,32.7742887 C138.511607,33.1818366 138.783306,33.4535353 139.190854,33.4535353 L141.500292,33.4535353 C141.771991,33.4535353 142.179539,33.1818366 142.179539,32.7742887 L142.179539,25.8459734 C142.315388,22.4497404 141.092744,19.5969047 136.881415,19.5969047 Z M161.198443,19.5969047 C159.024854,19.5969047 156.987114,20.140302 156.579566,20.2761513 C156.307868,20.4120006 156.036169,20.5478499 156.172019,21.0912472 L156.443717,22.5855897 C156.443717,22.9931377 156.715416,23.2648363 157.258813,23.128987 C158.073909,22.8572884 159.83995,22.5855897 161.062594,22.5855897 C162.421087,22.5855897 162.964484,23.4006856 162.964484,25.0308775 C162.964484,25.0308775 161.741841,24.6233295 160.383347,24.6233295 C156.987114,24.6233295 155.085224,26.3893707 155.085224,28.8346584 C155.085224,31.6874941 156.987114,33.4535353 159.568252,33.4535353 C161.605991,33.4535353 162.964484,32.50259 163.77958,31.8233434 L163.77958,32.50259 C163.77958,32.910138 164.051279,33.1818366 164.458827,33.1818366 L164.730526,33.1818366 C164.730526,33.1818366 164.730526,33.1818366 164.866375,33.1818366 L165.81732,33.1818366 C166.224868,33.1818366 166.496567,32.910138 166.496567,32.50259 L166.496567,25.3025761 C166.224868,21.7704938 165.273923,19.5969047 161.198443,19.5969047 Z M162.692786,29.3780557 C162.556937,29.921453 161.470142,30.7365489 160.247498,30.7365489 C159.024854,30.7365489 158.345608,29.921453 158.345608,28.8346584 C158.345608,27.6120145 159.160704,26.9327679 160.655046,26.9327679 C161.741841,26.9327679 162.556937,27.3403159 162.556937,27.3403159 L162.556937,29.3780557 L162.692786,29.3780557 Z M86.4813177,14.4346306 C81.1831943,14.4346306 76.9718654,18.7818088 76.9718654,24.0799322 C76.9718654,29.3780557 81.1831943,33.5893846 86.4813177,33.5893846 C91.9152905,33.5893846 96.1266194,29.3780557 96.1266194,24.0799322 C96.1266194,18.7818088 91.7794412,14.4346306 86.4813177,14.4346306 Z M86.4813177,18.1025622 C89.6058521,18.1025622 92.3228385,20.8195486 92.3228385,23.9440829 C92.3228385,27.2044666 89.7417014,29.7856036 86.4813177,29.7856036 C83.2209341,29.7856036 80.639797,27.2044666 80.639797,23.9440829 C80.639797,20.8195486 83.3567834,18.1025622 86.4813177,18.1025622 Z M189.455102,33.1818366 C189.86265,33.1818366 190.134348,32.910138 190.134348,32.50259 L190.134348,30.1931516 C190.134348,29.7856036 189.86265,29.513905 189.455102,29.513905 L189.319252,29.513905 C189.047554,29.513905 188.775855,29.2422064 188.775855,28.9705077 L188.775855,28.8346584 L188.775855,15.1138772 C188.775855,14.8421785 188.504157,14.4346306 188.096609,14.4346306 L185.78717,14.4346306 C185.515471,14.4346306 185.107924,14.7063292 185.107924,15.1138772 L185.107924,30.4648502 L185.107924,30.8723982 C185.107924,31.9591928 186.194718,33.1818366 187.417362,33.1818366 L189.455102,33.1818366 Z M205.485321,20.0044527 L204.534376,20.0044527 L204.534376,19.5969047 L206.843815,19.5969047 L206.843815,20.0044527 L205.892869,20.0044527 L205.892869,22.3138911 L205.349472,22.3138911 L205.349472,20.0044527 L205.485321,20.0044527 Z M207.387212,19.5969047 L208.066458,19.5969047 L208.474006,20.5478499 L208.745705,21.2270965 L208.745705,21.2270965 L209.017404,20.5478499 L209.424952,19.5969047 L210.104198,19.5969047 L210.104198,22.3138911 L209.560801,22.3138911 L209.560801,21.0912472 L209.560801,20.140302 L209.560801,20.140302 L208.881554,21.9063431 L208.474006,21.9063431 L207.79476,20.140302 L207.79476,20.140302 L207.79476,21.0912472 L207.79476,22.3138911 L207.251363,22.3138911 L207.251363,19.5969047 L207.387212,19.5969047 Z" id="Shape" fill="#212120"></path>
            </g>
        </g>
    </g>
</svg>