<?xml version="1.0" encoding="UTF-8"?>
<svg width="165px" height="48px" viewBox="0 0 165 48" version="1.1" xmlns="http://www.w3.org/2000/svg" xmlns:xlink="http://www.w3.org/1999/xlink">
    <!-- Generator: Sketch 61.2 (89653) - https://sketch.com -->
    <title>logo-shopify</title>
    <desc>Created with Sketch.</desc>
    <g id="Indigov-–-Landing-Page" stroke="none" stroke-width="1" fill="none" fill-rule="evenodd">
        <g id="Landing_Direction_FINAL_v1-Copy-4" transform="translate(-250.000000, -2031.000000)" fill-rule="nonzero">
            <g id="logo-shopify" transform="translate(250.000000, 2031.000000)">
                <path d="M35.2730703,9.50209975 C35.2402611,9.27243542 35.043406,9.14119866 34.87936,9.14119866 C34.7153141,9.14119866 31.2047307,8.87872513 31.2047307,8.87872513 C31.2047307,8.87872513 28.7768507,6.45084505 28.4815679,6.18837153 C28.2190944,5.92589801 27.6941474,5.99151639 27.4972922,6.05713477 C27.464483,6.05713477 26.9723452,6.22118072 26.1193062,6.48365424 C25.2990765,4.08858336 23.8554721,1.9231768 21.3291645,1.9231768 C21.2635461,1.9231768 21.1979277,1.9231768 21.0995001,1.9231768 C20.4105071,1.00451947 19.4918498,0.578 18.7372384,0.578 C12.8315842,0.578 10.0099938,7.96006781 9.1241457,11.7003155 C6.82750238,12.4221177 5.18704287,12.9142555 4.99018773,12.9798739 C3.71062931,13.3735842 3.67782012,13.4063934 3.51377417,14.6203334 C3.38253741,15.5389908 0.036,41.4582511 0.036,41.4582511 L26.1193062,46.3468204 L40.2600672,43.2955657 C40.2600672,43.2627565 35.3058795,9.73176408 35.2730703,9.50209975 Z M24.6757019,6.87736453 C24.0195181,7.07421967 23.2649067,7.303884 22.4774861,7.56635752 C22.4774861,7.40231157 22.4774861,7.27107481 22.4774861,7.07421967 C22.4774861,5.6306153 22.280631,4.44948445 21.9525391,3.49801793 C23.2649067,3.69487307 24.1179456,5.17128663 24.6757019,6.87736453 Z M20.3120796,3.82610983 C20.6729807,4.74476716 20.902645,6.02432558 20.902645,7.79602185 C20.902645,7.89444943 20.902645,7.96006781 20.902645,8.05849538 C19.4590406,8.51782404 17.9170087,8.9771527 16.3421676,9.46929056 C17.2280157,6.08994396 18.9012844,4.44948445 20.3120796,3.82610983 Z M18.5731925,2.15284113 C18.835666,2.15284113 19.0981395,2.2512687 19.3278039,2.41531465 C17.4248708,3.30116279 15.4235102,5.53218773 14.5704713,10.0270468 C13.3237221,10.4207571 12.109782,10.7816582 10.9614604,11.1425593 C11.9457361,7.73040347 14.3408069,2.15284113 18.5731925,2.15284113 Z" id="Shape" fill="#95BF47"></path>
                <path d="M34.87936,9.10838946 C34.7153141,9.10838946 31.2047307,8.84591594 31.2047307,8.84591594 C31.2047307,8.84591594 28.7768507,6.41803586 28.4815679,6.15556234 C28.3831404,6.05713477 28.2519036,5.99151639 28.1206669,5.99151639 L26.1521154,46.3468204 L40.2928764,43.2955657 C40.2928764,43.2955657 35.3386887,9.73176408 35.3058795,9.50209975 C35.2402611,9.27243542 35.043406,9.14119866 34.87936,9.10838946 Z" id="Path" fill="#5E8E3E"></path>
                <path d="M21.3291645,16.9169767 L19.5902774,22.1008288 C19.5902774,22.1008288 18.0482454,21.280599 16.1781216,21.280599 C13.4221496,21.280599 13.2909129,23.0194861 13.2909129,23.4460056 C13.2909129,25.8082673 19.4590406,26.7269246 19.4590406,32.2716778 C19.4590406,36.6353001 16.7030686,39.4568904 12.962821,39.4568904 C8.46796189,39.4568904 6.20412777,36.6681093 6.20412777,36.6681093 L7.41806781,32.6981973 C7.41806781,32.6981973 9.7803295,34.732367 11.7488809,34.732367 C13.0612485,34.732367 13.5861956,33.7152822 13.5861956,32.9606708 C13.5861956,29.8766069 8.53358027,29.7453701 8.53358027,24.6599456 C8.53358027,20.3947509 11.584835,16.2607929 17.7857719,16.2607929 C20.1480336,16.2279837 21.3291645,16.9169767 21.3291645,16.9169767 Z" id="Path" fill="#FFFFFF"></path>
                <path d="M56.7630899,26.6613062 C55.3522948,25.9066949 54.6304926,25.2505111 54.6304926,24.3646629 C54.6304926,23.2491505 55.6475775,22.5273483 57.2224186,22.5273483 C59.0597333,22.5273483 60.7001928,23.2819597 60.7001928,23.2819597 L61.9797512,19.3448568 C61.9797512,19.3448568 60.7986203,18.4261995 57.3208462,18.4261995 C52.465086,18.4261995 49.0857394,21.2149807 49.0857394,25.1192743 C49.0857394,27.3502992 50.6605806,29.0235679 52.7603687,30.237508 C54.4664466,31.1889745 55.057012,31.8779675 55.057012,32.8950524 C55.057012,33.9449465 54.2039731,34.7979854 52.629132,34.7979854 C50.2996795,34.7979854 48.0686545,33.5840454 48.0686545,33.5840454 L46.6906685,37.5211482 C46.6906685,37.5211482 48.7248383,38.8991342 52.1698033,38.8991342 C57.1568002,38.8991342 60.7658112,36.4384449 60.7658112,32.0092043 C60.733002,29.5813242 58.9284965,27.9080555 56.7630899,26.6613062 Z M76.6454592,18.3605811 C74.18477,18.3605811 72.2490277,19.541712 70.7726142,21.3134082 L70.7069958,21.280599 L72.8395932,10.1254744 L67.29484,10.1254744 L61.8813236,38.5382331 L67.4260768,38.5382331 L69.2633914,28.8267128 C69.9851936,25.1520835 71.8881266,22.8882494 73.6598229,22.8882494 C74.9065721,22.8882494 75.39871,23.7412883 75.39871,24.9552284 C75.39871,25.7098397 75.3330916,26.6613062 75.1690457,27.4159176 L73.0692575,38.5382331 L78.6140106,38.5382331 L80.7794172,27.0550165 C81.0090815,25.8410765 81.1731275,24.3974721 81.1731275,23.4131964 C81.2059367,20.230705 79.5654772,18.3605811 76.6454592,18.3605811 Z M93.7718565,18.3605811 C87.0787817,18.3605811 82.649541,24.3974721 82.649541,31.1233561 C82.649541,35.42136 85.3070855,38.8991342 90.2940824,38.8991342 C96.8559204,38.8991342 101.285161,33.0262892 101.285161,26.1363592 C101.31797,22.133638 98.9885178,18.3605811 93.7718565,18.3605811 Z M91.0486938,34.6339395 C89.1457607,34.6339395 88.3583402,33.0262892 88.3583402,30.9921194 C88.3583402,27.8096279 89.9987997,22.6257758 93.0172452,22.6257758 C94.9857966,22.6257758 95.6419804,24.3318537 95.6419804,25.9723133 C95.6419804,29.384469 93.9687117,34.6339395 91.0486938,34.6339395 Z M115.52435,18.3605811 C111.784102,18.3605811 109.651505,21.6743093 109.651505,21.6743093 L109.585886,21.6743093 L109.913978,18.688673 L104.9926,18.688673 C104.762935,20.6900336 104.303607,23.7740975 103.877087,26.0707408 L100.005603,46.4124388 L105.550356,46.4124388 L107.092388,38.177332 L107.223625,38.177332 C107.223625,38.177332 108.371946,38.8991342 110.471734,38.8991342 C117.000763,38.8991342 121.265958,32.2060594 121.265958,25.4473662 C121.265958,21.7071185 119.592689,18.3605811 115.52435,18.3605811 Z M110.209261,34.6995579 C108.765656,34.6995579 107.912618,33.8793281 107.912618,33.8793281 L108.831275,28.695476 C109.487459,25.2177019 111.291964,22.9210586 113.227706,22.9210586 C114.933784,22.9210586 115.458731,24.4958997 115.458731,25.9723133 C115.458731,29.5813242 113.326134,34.6995579 110.209261,34.6995579 Z M129.205782,10.3879479 C127.434086,10.3879479 126.023291,11.7987431 126.023291,13.6032485 C126.023291,15.243708 127.073185,16.3920297 128.648026,16.3920297 L128.713644,16.3920297 C130.452531,16.3920297 131.928945,15.2108989 131.961754,13.1767291 C131.961754,11.5362695 130.879051,10.3879479 129.205782,10.3879479 Z" id="Shape" fill="#000000"></path>
                <polygon id="Path" fill="#000000" points="121.43 38.505 126.975 38.505 130.748 18.787 125.17 18.787"></polygon>
                <path d="M144.888575,18.7542914 L141.017091,18.7542914 L141.213946,17.8356341 C141.542038,15.932701 142.65755,14.2594323 144.527674,14.2594323 C145.51195,14.2594323 146.29937,14.554715 146.29937,14.554715 L147.382073,10.1910927 C147.382073,10.1910927 146.430607,9.69895489 144.363628,9.69895489 C142.395076,9.69895489 140.426525,10.2567111 138.917302,11.5362695 C137.014369,13.1439199 136.128521,15.4733724 135.702002,17.8356341 L135.537956,18.7542914 L132.94603,18.7542914 L132.1258,22.9538678 L134.717726,22.9538678 L131.764899,38.5054239 L137.309652,38.5054239 L140.262479,22.9538678 L144.101154,22.9538678 L144.888575,18.7542914 Z M158.274725,18.7871006 C158.274725,18.7871006 154.79695,27.5471544 153.254918,32.3372962 L153.1893,32.3372962 C153.090873,30.7952642 151.811314,18.7871006 151.811314,18.7871006 L145.971278,18.7871006 L149.317816,36.8649644 C149.383434,37.2586747 149.350625,37.5211482 149.186579,37.7836217 C148.530395,39.030371 147.447692,40.244311 146.168133,41.1301591 C145.118239,41.8847705 143.937108,42.3769084 143.018451,42.7050003 L144.560483,47.4295237 C145.675996,47.1998593 148.038257,46.2483928 150.006809,44.4110782 C152.533116,42.0488165 154.895378,38.3741872 157.290449,33.3871902 L164.081951,18.7871006 L158.274725,18.7871006 Z" id="Shape" fill="#000000"></path>
            </g>
        </g>
    </g>
</svg>