<?xml version="1.0" encoding="UTF-8"?>
<svg width="87px" height="17px" viewBox="0 0 87 17" version="1.1" xmlns="http://www.w3.org/2000/svg" xmlns:xlink="http://www.w3.org/1999/xlink">
    <!-- Generator: Sketch 61.2 (89653) - https://sketch.com -->
    <title>logo-venmo</title>
    <desc>Created with Sketch.</desc>
    <g id="Indigov-–-Landing-Page" stroke="none" stroke-width="1" fill="none" fill-rule="evenodd">
        <g id="Landing_Direction_FINAL_v1-Copy-4" transform="translate(-458.000000, -2049.000000)" fill="#3D95CE">
            <g id="logo-venmo" transform="translate(458.000000, 2049.000000)">
                <path d="M7.2,11.5 L5.9,0.7 L0.3,1.2 L2.8,16.3 L9.1,16.3 C12,12.7 15.3,7.5 15.3,3.4 C15.3,2.1 15,1.1 14.5,0.2 L9.5,1.2 C9.8,2 10,2.9 10,4 C10,6.2 8.5,9.5 7.2,11.5 L7.2,11.5 Z" id="Path"></path>
                <path d="M24.8,0.4 C19,0.4 16.2,5.4 16.2,10.2 C16.2,13.8 17.9,16.8 22.8,16.8 C24.7,16.8 26.7,16.4 27.9,15.8 L28.6,11.3 C26.8,12.2 25.5,12.6 24.1,12.6 C22.8,12.6 21.8,11.9 21.8,10.2 C24.7,10.2 29.9,8.9 29.9,5 C29.7,2.2 27.9,0.4 24.8,0.4 L24.8,0.4 Z M25.3,5.1 C25.3,6.5 22.7,7 21.7,7 C21.9,5.2 23.2,4.1 24.2,4.1 C24.8,4 25.3,4.5 25.3,5.1 L25.3,5.1 Z" id="Shape"></path>
                <path d="M32.6,0.7 L30.2,16.4 L35.6,16.4 L37.3,5.4 C37.8,5.1 38.5,4.8 39.2,4.8 C39.7,4.8 40.1,5 40.1,5.6 C40.1,5.9 40,6.4 40,6.7 L38.5,16.4 L43.9,16.4 L45.6,5.9 C45.7,5.3 45.8,4.5 45.8,3.9 C45.8,1.8 44.9,0.4 42.1,0.4 C40,0.4 38.6,1.2 37.5,1.9 L37.4,0.6 L32.6,0.7 L32.6,0.7 Z" id="Path"></path>
                <path d="M49.1,0.7 L46.7,16.4 L52.2,16.4 L53.9,5.4 C54.4,5.1 55.1,4.8 55.8,4.8 C56.3,4.8 56.7,5 56.7,5.7 C56.7,5.9 56.6,6.2 56.6,6.5 L55,16.3 L60.4,16.3 L62.1,5.3 C62.6,5 63.3,4.7 64,4.7 C64.5,4.7 64.9,4.9 64.9,5.6 C64.9,5.8 64.8,6.1 64.8,6.4 L63.3,16.2 L68.7,16.2 L70.4,5.7 C70.5,5.1 70.6,4.3 70.6,3.7 C70.6,1.6 69.7,0.2 66.9,0.2 C64.9,0.2 63.5,0.8 61.9,1.9 C61.3,0.9 60.2,0.2 58.5,0.2 C56.6,0.2 55.1,1 54,1.8 L53.8,0.5 L49.2,0.5 L49.1,0.7 L49.1,0.7 Z" id="Path"></path>
                <path d="M80.6,0.4 C74.5,0.4 71.9,5 71.9,10 C71.9,13.8 73.4,16.8 78,16.8 C84.2,16.8 86.7,11.8 86.7,6.8 C86.8,3.1 85.1,0.4 80.6,0.4 L80.6,0.4 Z M77.4,10.3 C77.4,8.4 77.8,4.6 80,4.6 C80.9,4.6 81.3,5.4 81.3,6.8 C81.3,8.7 80.8,12.7 78.9,12.7 C77.8,12.6 77.4,11.7 77.4,10.3 L77.4,10.3 Z" id="Shape"></path>
            </g>
        </g>
    </g>
</svg>