<?xml version="1.0" encoding="UTF-8"?>
<svg width="118px" height="42px" viewBox="0 0 118 42" version="1.1" xmlns="http://www.w3.org/2000/svg" xmlns:xlink="http://www.w3.org/1999/xlink">
    <!-- Generator: Sketch 61.2 (89653) - https://sketch.com -->
    <title>logo-uber</title>
    <desc>Created with Sketch.</desc>
    <g id="Indigov-–-Landing-Page" stroke="none" stroke-width="1" fill="none" fill-rule="evenodd">
        <g id="Landing_Direction_FINAL_v1-Copy-4" transform="translate(-1052.000000, -2033.000000)" fill="#000000" fill-rule="nonzero">
            <g id="logo-uber" transform="translate(1052.000000, 2033.000000)">
                <path d="M15.9804826,35.9773557 C21.5329532,35.9773557 25.8261878,31.6831822 25.8261878,25.3287819 L25.8261878,0.597609993 L31.8359649,0.597609993 L31.8359649,40.6715551 L25.8834685,40.6715551 L25.8834685,36.9501884 C23.1931542,39.7550641 19.4727265,41.3579843 15.2931143,41.3579843 C6.70570622,41.3579843 0.122183186,35.1181454 0.122183186,25.6762221 L0.122183186,0.604183186 L6.13196031,0.604183186 L6.13196031,25.3287819 C6.13196031,31.7977436 10.3679142,35.9773557 15.9786045,35.9773557 M36.3029196,0.59854902 L42.084513,0.59854902 L42.084513,15.1966733 C44.8087145,12.4062093 48.5460149,10.836638 52.4457443,10.845219 C61.0331524,10.845219 67.7875785,17.6578648 67.7875785,26.1307115 C67.7875785,34.5462776 61.0331524,41.3580906 52.4457443,41.3580906 C48.5276514,41.3685849 44.7704766,39.8003876 42.0225371,37.0074691 L42.0225371,40.669677 L36.2944683,40.669677 L36.3029196,0.59854902 Z M52.0457185,36.2637592 C57.5418475,36.2637592 62.0642048,31.7404629 62.0642048,26.1307115 C62.0642048,20.4627405 57.5418475,15.9976639 52.0457185,15.9976639 C46.4923089,15.9976639 41.9699516,20.4627405 41.9699516,26.1307115 C41.9699516,31.7404629 46.4350282,36.2637592 52.0457185,36.2637592 M85.0778951,10.9024997 C93.4925221,10.9024997 99.6760194,17.3714614 99.6760194,26.0734308 L99.6760194,27.9627545 L75.9214362,27.9627545 C76.7233659,32.7142346 80.6729163,36.2637592 85.5934213,36.2637592 C88.9739209,36.2637592 91.8341992,34.8890227 94.0089873,31.9695856 L98.1885995,35.0608647 C95.2682234,38.9540735 90.9177082,41.3007036 85.5934213,41.3007036 C76.8351102,41.3007036 70.0797451,34.7744613 70.0797451,26.0734308 C70.0797451,17.8297069 76.5487067,10.9024997 85.0788341,10.9024997 M76.0331805,23.3831166 L93.8371453,23.3831166 C92.8643126,18.9171009 89.2575073,15.9403832 84.9642728,15.9403832 C80.6710382,15.9403832 77.0642329,18.9171009 76.0331805,23.3831166 M115.189696,16.6277515 C111.411048,16.6277515 108.663453,19.5471885 108.663453,24.0695458 L108.663453,40.6715551 L102.880921,40.6715551 L102.880921,11.4753066 L108.60899,11.4753066 L108.60899,15.084929 C110.040068,12.7373598 112.387637,11.2490009 115.593478,11.2490009 L117.596424,11.2490009 L117.596424,16.6305685 L115.189696,16.6277515 Z" id="Shape"></path>
            </g>
        </g>
    </g>
</svg>