<?xml version="1.0" encoding="UTF-8"?>
<svg width="185px" height="102px" viewBox="0 0 185 102" version="1.1" xmlns="http://www.w3.org/2000/svg" xmlns:xlink="http://www.w3.org/1999/xlink">
    <!-- Generator: Sketch 48 (47235) - http://www.bohemiancoding.com/sketch -->
    <title>noun_1439886_cc copy</title>
    <desc>Created with Sketch.</desc>
    <defs></defs>
    <g id="Landing-Page-Boo" stroke="none" stroke-width="1" fill="none" fill-rule="evenodd" transform="translate(-1390.000000, -2470.000000)">
        <g id="Group-18-Copy-24" transform="translate(0.000000, 18.000000)" fill="#FFFFFF" fill-rule="nonzero">
            <g id="Group-63" transform="translate(609.000000, 2452.000000)">
                <g id="noun_1439886_cc-copy" transform="translate(781.000000, 0.000000)">
                    <path d="M90.0942297,95.9414912 C90.9536205,97.2946228 89.9002313,99.0510488 88.3072067,98.9211815 L81.5203949,98.3679037 C80.7694246,98.3066827 80.122232,97.8130805 79.8620042,97.103079 L77.870232,91.6687611 L73.9797692,85.3852934 L72.2182899,85.3852934 L70.2993624,87.8384641 C69.6768286,88.6343159 68.5499807,88.8166724 67.7099692,88.2575029 L62.9094451,85.061942 C62.4677625,84.7679276 62.1655816,84.304798 62.0735148,83.7807754 L61.6448037,81.3406523 L57.9621485,78.2888922 L55.4555229,78.2888922 C55.4555229,79.3645928 54.5896898,80.2340095 53.5216309,80.2340095 L43.9845507,80.2340095 C43.7409186,80.2340095 43.4994807,80.1877834 43.2729422,80.0977639 L32.6617173,75.8811817 C32.0676067,75.6451001 31.6376774,75.1348651 31.4928107,74.5290524 L25.465089,74.5290524 C24.7605265,74.5290524 24.1117147,74.1442918 23.7715394,73.5247378 L21.8518534,70.0284546 L17.7454096,69.1272765 L13.4211802,67.4543898 C12.6797746,67.1631274 12.1918848,66.4453907 12.1918848,65.6459684 L12.1918848,63.3135151 L9.36399276,60.8813064 C8.93504393,60.5123767 8.68814456,59.9735907 8.68814456,59.4064642 L8.68814456,56.3016475 L7.68663618,53.9641059 L5.65842098,53.2019233 C5.19521242,53.0278544 4.81602438,52.6821947 4.59882346,52.2360169 L0.196485325,43.1926621 C-0.135054143,42.5116083 -0.0416052397,41.6990911 0.435803153,41.1118476 L1.84254114,39.3814677 L1.84254114,36.6146302 L0.310152598,34.2359889 C0.0315308971,33.8035002 -0.0645555691,33.2775746 0.0430364403,32.7739392 L1.84254114,24.3505044 L1.84254114,17.9437303 L0.0574581012,10.7540871 C0.0193091525,10.6004375 1.9833364e-05,10.4426792 1.9833364e-05,10.2843263 L1.9833364e-05,6.96033688 C1.9833364e-05,5.7248927 1.13377177,4.80354527 2.33708849,5.06110998 L4.40235796,5.5031719 L4.40235796,4.21556016 C4.40235796,3.14308023 5.26819088,2.27366347 6.33624992,2.27366347 L92.3976479,2.27366347 L92.7872744,1.24961033 C93.2517633,0.0287969749 94.7603634,-0.392065649 95.7854283,0.413198614 L97.0408752,1.39944516 C97.3644942,1.65367181 97.5990637,2.00479184 97.710573,2.40189596 L98.1420729,3.93853986 L101.399846,3.93853986 C102.080691,3.93853986 102.711377,4.2980415 103.060364,4.88506246 L103.699859,5.96074151 L104.341693,5.96074151 C104.645326,5.96074151 104.944693,6.03253249 105.215559,6.17030288 L105.992529,6.56549206 L107.028815,6.11843488 C107.395657,5.96017781 107.802289,5.91981318 108.192889,6.002882 L111.781944,6.76616417 L117.446545,6.76616417 C117.807819,6.76616417 118.16187,6.86778098 118.468571,7.05949803 L127.460305,12.6801668 C127.636154,12.7900883 127.793273,12.9276641 127.925658,13.0876354 L129.646447,15.1670087 L132.732253,17.9965532 L135.122278,19.8631455 C135.480315,20.1427697 135.729079,20.5398677 135.825074,20.9850105 L137.349597,28.0544316 C137.430376,28.4290155 137.398961,28.8192258 137.259309,29.1759163 L135.734786,33.069753 L135.156141,34.1056333 L143.065577,31.7344145 L143.065577,29.5719659 C143.065577,28.6150686 143.759777,27.8007995 144.701338,27.6532833 L151.114992,26.648443 L155.339032,22.1943031 C155.682595,21.8320244 156.15214,21.6168588 156.649802,21.5936512 L166.688877,21.1254991 C166.797591,20.3463824 167.369565,19.6983538 168.148392,19.50876 L170.327063,18.9783952 L174.051553,10.9930241 C174.533364,9.96001345 175.793903,9.56452316 176.775701,10.138331 L177.760737,10.714032 L179.64333,10.714032 C180.568481,10.714032 181.364051,11.3719805 181.541369,12.2837379 L182.840571,18.9641615 L184.850938,23.8096446 C185.235479,24.7364847 184.852972,25.8048491 183.968745,26.2736634 L173.4718,31.8391055 L172.663955,38.009 C172.564257,38.7704449 172.027014,39.4013547 171.293395,39.6185152 L166.815625,40.9397014 L162.831133,42.408279 L162.831133,44.7784612 C162.831133,45.0509207 162.774034,45.3203309 162.663549,45.5691801 L161.053411,49.1957435 C160.977079,49.3676701 160.876256,49.5275385 160.754109,49.6703319 L158.206523,52.6485228 C157.959444,52.937364 157.633251,53.1468929 157.268516,53.2510485 L155.583119,53.732339 L156.992994,57.6144301 C157.070422,57.8276282 157.110035,58.0528043 157.110035,58.2797369 L157.110035,62.4199552 C157.110035,63.0965802 156.759292,63.7244214 156.184253,64.0771361 L152.417583,66.3875142 L150.142352,68.6192718 L145.393657,72.1251878 L141.360181,75.204619 L140.109059,80.3553161 L141.496074,87.9243412 L143.704015,92.3508921 C143.838667,92.6208455 143.908777,92.9186074 143.908777,93.2205284 L143.908777,98.9514205 C143.908777,99.75644 143.414129,100.477989 142.665251,100.765368 L139.78168,101.871923 C138.986074,102.177233 138.085214,101.92393 137.563206,101.248135 L131.854339,93.857409 C131.591311,93.516891 131.448556,93.0981919 131.448556,92.6672506 L131.448556,87.2319494 L129.55732,84.4124307 L127.072036,85.2780582 C126.556266,85.4577017 125.988906,85.4100819 125.509993,85.1469518 L120.398902,82.3387581 L113.51329,83.6876343 L113.51329,84.1850981 C113.51329,84.8446828 113.179867,85.4591731 112.62793,85.8167916 L108.840725,88.2706511 C108.099791,88.7507277 107.129268,88.6667294 106.481071,88.0664243 L103.705586,85.496005 L96.1440844,86.5785938 L90.1365217,91.9184143 L89.2507905,94.6134762 L90.0942297,95.9414912 Z M137.914724,89.4168401 C137.833074,89.2531469 137.774888,89.0786821 137.741893,88.8986275 L136.230321,80.649889 C136.181001,80.3807468 136.188889,80.104176 136.253469,79.8383094 L137.765042,73.6153747 C137.87016,73.1826189 138.120247,72.7993072 138.473375,72.5297051 L143.082734,69.011064 L147.538698,65.7438691 L149.871383,63.4557548 C149.9754,63.3537252 150.090545,63.263801 150.214635,63.1876874 L153.242252,61.3306257 L153.242252,58.6227708 L151.236904,53.1010468 C150.852046,52.0413398 151.444275,50.8764541 152.524755,50.5679067 L155.651321,49.6750688 L157.635902,47.3550452 L158.963349,44.3651958 L158.963349,41.0524809 C158.963349,40.2380461 159.469463,39.5101425 160.230869,39.2295085 L165.602423,37.2540807 L168.993147,36.2503836 L169.767341,30.3374983 C169.849084,29.7131838 170.227222,29.167426 170.781759,28.8734125 L180.601701,23.6669148 L179.19491,20.2761974 L179.082037,19.9015879 L178.050566,14.5978254 L177.238915,14.5978254 C177.048708,14.5978254 176.860391,14.5696559 176.679857,14.5149134 L173.436064,21.4696609 C173.187211,22.0032073 172.710587,22.3944569 172.14037,22.5332678 L170.537922,22.9233597 C170.537922,24.0176327 169.725809,24.8718571 168.693745,24.9199852 L157.604673,25.437102 L153.462832,29.8045644 C153.168995,30.1144084 152.781476,30.3181345 152.360478,30.384093 L146.933361,31.2343707 L146.933361,33.1812392 C146.933361,34.0397461 146.371955,34.7963712 145.552721,35.0419747 L135.828784,37.9474483 L132.996294,38.5007261 C131.80245,38.7339227 130.693129,37.8158162 130.693129,36.5945599 L130.693129,34.5946912 C130.693129,34.2488124 130.785128,33.9092104 130.959616,33.6109932 L132.190712,31.5069293 L133.445542,28.3019259 L132.193067,22.4940294 L130.242826,20.965133 L126.941972,17.9465991 L125.150767,15.8113393 L116.893782,10.6499575 L111.579398,10.6499575 L107.991791,9.93005849 L106.688589,10.4922642 C106.162137,10.7193774 105.562492,10.7003806 105.051344,10.4403962 L103.879839,9.84453487 L102.602053,9.84453487 C101.921208,9.84453487 101.290522,9.48503323 100.941535,8.89801227 L100.30204,7.82233323 L96.6780703,7.82233323 C95.81214,7.82233323 95.0517586,7.24432368 94.8167565,6.40744163 L94.6766178,5.90838395 C94.3933773,6.0683138 94.0686633,6.15745684 93.7290289,6.15745684 L8.27014188,6.15745684 L8.27014188,7.90263819 C8.27014188,9.13808238 7.13638994,10.0594298 5.93307323,9.80186509 L3.86780375,9.35980315 L3.86780375,10.0459053 L5.6528868,17.2355485 C5.69103574,17.3891981 5.71032506,17.5469564 5.71032506,17.7053093 L5.71032506,24.5564449 L5.66730845,24.9637449 L3.99282559,32.8019557 L5.4001923,34.9865326 C5.60262789,35.300762 5.71032506,35.6670359 5.71032506,36.0412821 L5.71032506,40.0734385 C5.71032506,40.5209702 5.55638441,40.9547664 5.27454175,41.3014513 L4.21527389,42.6044201 L7.73543071,49.8355837 L9.81491269,50.6170318 C10.3084766,50.802508 10.7052828,51.1822082 10.9135498,51.6683077 L12.3985025,55.1342187 C12.5023629,55.3766311 12.5559285,55.6377566 12.5559285,55.9016508 L12.5559285,58.5129043 L15.3838205,60.945113 C15.8127694,61.3140425 16.0596687,61.8528288 16.0596687,62.4199552 L16.0596687,64.3204779 L18.7205579,65.3658129 L23.5347338,66.422306 C24.0794007,66.5418358 24.5461954,66.8915867 24.8153773,67.381842 L26.6072048,70.645259 L33.3733257,70.645259 C34.4413847,70.645259 35.3072177,71.5146757 35.3072177,72.5871557 L44.3532903,76.3502161 L51.587739,76.3502161 C51.587739,75.2745157 52.4535718,74.4050988 53.5216309,74.4050988 L58.6570924,74.4050988 C59.106326,74.4050988 59.5415459,74.5621423 59.8880268,74.8492659 L64.6563904,78.8007358 C65.0112037,79.0947642 65.2500122,79.5061709 65.3299375,79.9610868 L65.7382879,82.2853216 L68.3598567,84.0304189 L69.7573213,82.2438902 C70.1239514,81.7751877 70.6846209,81.5015 71.2781631,81.5015 L75.0546107,81.5015 C75.7230214,81.5015 76.3440455,81.848089 76.6969632,82.4180846 L81.2592383,89.7865929 L81.4317673,90.1412013 L83.064987,94.5972509 L85.1957672,94.7709572 C85.2052067,94.6028453 85.2364818,94.4350283 85.2901272,94.2717987 L86.627224,90.2033418 C86.7344045,89.8772179 86.9257979,89.5854685 87.1818882,89.3578429 L94.0149092,83.2843136 C94.298299,83.0324226 94.6490662,82.8695649 95.0237435,82.8159219 L104.068717,81.5209429 C104.643993,81.4385801 105.225659,81.620335 105.652815,82.01593 L108.002253,84.19178 L109.645506,83.1270596 L109.645506,82.0879734 C109.645506,81.158857 110.300931,80.3599163 111.209096,80.1820088 L120.344002,78.3925007 C120.787123,78.3056941 121.246527,78.3773009 121.64259,78.5949104 L126.614483,81.3266247 L129.696047,80.253312 C130.524994,79.9645888 131.443641,80.2724142 131.933792,81.003149 L134.986435,85.5541332 C135.20147,85.8747147 135.316339,86.2524396 135.316339,86.6389576 L135.316339,92.0024217 L140.619422,98.8678178 L138.400948,98.2440291 L141.284519,97.1374735 L140.040993,98.9514205 L140.040993,93.6796526 L137.914724,89.4168401 Z" id="Shape"></path>
                </g>
            </g>
        </g>
    </g>
</svg>