<?xml version="1.0" encoding="UTF-8"?>
<svg width="772px" height="218px" viewBox="0 0 772 218" version="1.1" xmlns="http://www.w3.org/2000/svg" xmlns:xlink="http://www.w3.org/1999/xlink">
    <!-- Generator: Sketch 42 (36781) - http://www.bohemiancoding.com/sketch -->
    <title>Group 15</title>
    <desc>Created with Sketch.</desc>
    <defs></defs>
    <g id="Page-1" stroke="none" stroke-width="1" fill="none" fill-rule="evenodd">
        <g id="Group-22-Copy-7" transform="translate(-1254.000000, -1443.000000)">
            <g id="Group-15" transform="translate(1254.000000, 1443.000000)">
                <g id="noun_74822_cc" fill-rule="nonzero" fill="#FFFFFF">
                    <g id="Group">
                        <path d="M114.561251,59.4748412 C113.297946,58.9359526 111.819503,59.5097692 111.271654,60.7746605 C110.723805,62.0395518 111.306676,63.5065264 112.574985,64.0553944 C140.680406,76.185378 158.839484,103.753522 158.839484,134.290544 C158.839484,163.465375 142.371484,188.867985 118.226088,201.763889 L114.506216,179.759271 C114.506216,179.714363 114.531232,179.674446 114.531232,179.629538 L114.531232,82.3302051 C114.531232,80.9530453 113.413019,79.8353504 112.029637,79.8353504 L110.118419,79.8353504 L96.4672142,73.0268919 L84.477069,2.08070882 C84.2744398,0.880683709 83.2312747,0 82.0104963,0 C80.7897179,0 79.7465527,0.880683709 79.5439235,2.08070882 L67.5537783,73.0268919 L53.902574,79.8353504 L51.9913553,79.8353504 C50.6104748,79.8353504 49.4897602,80.9530453 49.4897602,82.3302051 L49.4897602,179.629538 C49.4897602,179.676941 49.5147762,179.714363 49.5172778,179.759271 L45.8199203,201.644136 C21.7971027,188.71081 5.43917249,163.373065 5.43917249,134.290544 C5.43917249,103.783461 23.5757368,76.2252956 51.641132,64.0828378 C52.9094407,63.5339698 53.4898108,62.0645004 52.9419615,60.8021039 C52.3941121,59.5372126 50.9156694,58.9584063 49.6523639,59.5047794 C19.7558011,72.4406011 0.438483923,101.795061 0.438483923,134.290544 C0.438483923,179.220382 37.0893534,215.772498 82.1405792,215.772498 C127.189303,215.772498 163.842675,179.220382 163.842675,134.290544 C163.840173,101.765123 144.49784,72.3981885 114.561251,59.4748412 Z M98.9312854,79.8353504 L97.617948,79.8353504 L97.4978714,79.121822 L98.9312854,79.8353504 Z M109.528042,84.8250598 L109.528042,150.310006 L98.4609855,84.8250598 L109.528042,84.8250598 Z M82.0104963,17.5063954 L92.1219436,77.3404957 L71.899049,77.3404957 L82.0104963,17.5063954 Z M66.5231211,79.121822 L66.4030446,79.8353504 L65.0897072,79.8353504 L66.5231211,79.121822 Z M54.4929504,84.8250598 L65.560007,84.8250598 L54.4929504,150.312501 L54.4929504,84.8250598 Z M106.941393,206.656299 C106.736262,205.483718 105.758138,204.578085 104.524852,204.578085 C103.14147,204.578085 102.023257,205.693285 102.023257,207.07294 L102.023257,208.160697 C101.195229,208.382739 100.359696,208.582327 99.5216618,208.776926 L99.5216618,207.07294 C99.5216618,205.693285 98.4034488,204.578085 97.0200668,204.578085 C95.6366847,204.578085 94.5184717,205.693285 94.5184717,207.07294 L94.5184717,209.567795 C94.5184717,209.637651 94.553494,209.697527 94.5584972,209.764888 C93.7154597,209.902105 92.8674189,210.016869 92.0168766,210.126642 L92.0168766,207.07294 C92.0168766,205.693285 90.8986636,204.578085 89.5152815,204.578085 C88.1318994,204.578085 87.0136864,205.693285 87.0136864,207.07294 L87.0136864,210.613139 C86.1831569,210.665531 85.3501257,210.697964 84.5120914,210.722913 L84.5120914,207.07294 C84.5120914,205.693285 83.3913768,204.578085 82.0104963,204.578085 C80.6296158,204.578085 79.5089012,205.693285 79.5089012,207.07294 L79.5089012,210.717923 C78.6708669,210.690479 77.8378357,210.648067 77.0073061,210.59318 L77.0073061,207.07294 C77.0073061,205.693285 75.8865915,204.578085 74.505711,204.578085 C73.1248306,204.578085 72.004116,205.693285 72.004116,207.07294 L72.004116,210.094209 C71.1560752,209.981941 70.3105361,209.859693 69.4725017,209.719981 C69.4750033,209.667589 69.5025209,209.622682 69.5025209,209.567795 L69.5025209,207.07294 C69.5025209,205.693285 68.3818063,204.578085 67.0009258,204.578085 C65.6200453,204.578085 64.4993307,205.693285 64.4993307,207.07294 L64.4993307,208.719544 C63.6612964,208.522451 62.8257636,208.315378 61.9977356,208.088346 L61.9977356,207.07294 C61.9977356,205.693285 60.877021,204.578085 59.4961406,204.578085 C58.2928733,204.578085 57.3347624,205.4438 57.0946093,206.573969 C54.8481769,205.798069 52.6492748,204.91988 50.5029063,203.944392 L71.0560114,82.3302051 L92.9649811,82.3302051 L113.535597,204.054166 C111.386727,205.019675 109.187825,205.887884 106.941393,206.656299 Z M84.5120914,119.753026 L84.5120914,122.24788 C84.5120914,123.627535 83.3913768,124.742735 82.0104963,124.742735 C80.6296158,124.742735 79.5089012,123.627535 79.5089012,122.24788 L79.5089012,119.753026 C79.5089012,118.373371 80.6296158,117.258171 82.0104963,117.258171 C83.3913768,117.258171 84.5120914,118.373371 84.5120914,119.753026 Z M87.0136864,109.773607 L87.0136864,107.278752 C87.0136864,105.901592 88.1318994,104.783897 89.5152815,104.783897 C90.8986636,104.783897 92.0168766,105.901592 92.0168766,107.278752 L92.0168766,109.773607 C92.0168766,111.153261 90.8986636,112.268461 89.5152815,112.268461 C88.1318994,112.268461 87.0136864,111.153261 87.0136864,109.773607 Z M77.0073061,132.227299 L77.0073061,134.722154 C77.0073061,136.101808 75.8865915,137.217008 74.505711,137.217008 C73.1248306,137.217008 72.004116,136.101808 72.004116,134.722154 L72.004116,132.227299 C72.004116,130.847644 73.1248306,129.732444 74.505711,129.732444 C75.8865915,129.732444 77.0073061,130.847644 77.0073061,132.227299 Z M69.5025209,132.227299 L69.5025209,134.722154 C69.5025209,136.101808 68.3818063,137.217008 67.0009258,137.217008 C65.6200453,137.217008 64.4993307,136.101808 64.4993307,134.722154 L64.4993307,132.227299 C64.4993307,130.847644 65.6200453,129.732444 67.0009258,129.732444 C68.3818063,129.732444 69.5025209,130.847644 69.5025209,132.227299 Z M61.9977356,169.65012 L61.9977356,172.144974 C61.9977356,173.524629 60.877021,174.639829 59.4961406,174.639829 C58.1152601,174.639829 56.9945455,173.524629 56.9945455,172.144974 L56.9945455,169.65012 C56.9945455,168.270465 58.1152601,167.155265 59.4961406,167.155265 C60.877021,167.155265 61.9977356,168.270465 61.9977356,169.65012 Z M102.023257,169.65012 C102.023257,168.270465 103.14147,167.155265 104.524852,167.155265 C105.908234,167.155265 107.026447,168.270465 107.026447,169.65012 L107.026447,172.144974 C107.026447,173.524629 105.908234,174.639829 104.524852,174.639829 C103.14147,174.639829 102.023257,173.524629 102.023257,172.144974 L102.023257,169.65012 Z M94.5184717,132.227299 C94.5184717,130.847644 95.6366847,129.732444 97.0200668,129.732444 C98.4034488,129.732444 99.5216618,130.847644 99.5216618,132.227299 L99.5216618,134.722154 C99.5216618,136.101808 98.4034488,137.217008 97.0200668,137.217008 C95.6366847,137.217008 94.5184717,136.101808 94.5184717,134.722154 L94.5184717,132.227299 Z M84.5120914,132.227299 L84.5120914,134.722154 C84.5120914,136.101808 83.3913768,137.217008 82.0104963,137.217008 C80.6296158,137.217008 79.5089012,136.101808 79.5089012,134.722154 L79.5089012,132.227299 C79.5089012,130.847644 80.6296158,129.732444 82.0104963,129.732444 C83.3913768,129.732444 84.5120914,130.847644 84.5120914,132.227299 Z M92.0168766,132.227299 L92.0168766,134.722154 C92.0168766,136.101808 90.8986636,137.217008 89.5152815,137.217008 C88.1318994,137.217008 87.0136864,136.101808 87.0136864,134.722154 L87.0136864,132.227299 C87.0136864,130.847644 88.1318994,129.732444 89.5152815,129.732444 C90.8986636,129.732444 92.0168766,130.847644 92.0168766,132.227299 Z M77.0073061,144.701573 L77.0073061,147.196427 C77.0073061,148.576082 75.8865915,149.691282 74.505711,149.691282 C73.1248306,149.691282 72.004116,148.576082 72.004116,147.196427 L72.004116,144.701573 C72.004116,143.321918 73.1248306,142.206718 74.505711,142.206718 C75.8865915,142.206718 77.0073061,143.321918 77.0073061,144.701573 Z M69.5025209,144.701573 L69.5025209,147.196427 C69.5025209,148.576082 68.3818063,149.691282 67.0009258,149.691282 C65.6200453,149.691282 64.4993307,148.576082 64.4993307,147.196427 L64.4993307,144.701573 C64.4993307,143.321918 65.6200453,142.206718 67.0009258,142.206718 C68.3818063,142.206718 69.5025209,143.321918 69.5025209,144.701573 Z M84.5120914,144.701573 L84.5120914,147.196427 C84.5120914,148.576082 83.3913768,149.691282 82.0104963,149.691282 C80.6296158,149.691282 79.5089012,148.576082 79.5089012,147.196427 L79.5089012,144.701573 C79.5089012,143.321918 80.6296158,142.206718 82.0104963,142.206718 C83.3913768,142.206718 84.5120914,143.321918 84.5120914,144.701573 Z M92.0168766,144.701573 L92.0168766,147.196427 C92.0168766,148.576082 90.8986636,149.691282 89.5152815,149.691282 C88.1318994,149.691282 87.0136864,148.576082 87.0136864,147.196427 L87.0136864,144.701573 C87.0136864,143.321918 88.1318994,142.206718 89.5152815,142.206718 C90.8986636,142.206718 92.0168766,143.321918 92.0168766,144.701573 Z M97.0200668,149.691282 C95.6366847,149.691282 94.5184717,148.576082 94.5184717,147.196427 L94.5184717,144.701573 C94.5184717,143.321918 95.6366847,142.206718 97.0200668,142.206718 C98.4034488,142.206718 99.5216618,143.321918 99.5216618,144.701573 L99.5216618,147.196427 C99.5216618,148.576082 98.4034488,149.691282 97.0200668,149.691282 Z M77.0073061,157.175846 L77.0073061,159.670701 C77.0073061,161.050355 75.8865915,162.165555 74.505711,162.165555 C73.1248306,162.165555 72.004116,161.050355 72.004116,159.670701 L72.004116,157.175846 C72.004116,155.796191 73.1248306,154.680991 74.505711,154.680991 C75.8865915,154.680991 77.0073061,155.796191 77.0073061,157.175846 Z M84.5120914,157.175846 L84.5120914,159.670701 C84.5120914,161.050355 83.3913768,162.165555 82.0104963,162.165555 C80.6296158,162.165555 79.5089012,161.050355 79.5089012,159.670701 L79.5089012,157.175846 C79.5089012,155.796191 80.6296158,154.680991 82.0104963,154.680991 C83.3913768,154.680991 84.5120914,155.796191 84.5120914,157.175846 Z M92.0168766,157.175846 L92.0168766,159.670701 C92.0168766,161.050355 90.8986636,162.165555 89.5152815,162.165555 C88.1318994,162.165555 87.0136864,161.050355 87.0136864,159.670701 L87.0136864,157.175846 C87.0136864,155.796191 88.1318994,154.680991 89.5152815,154.680991 C90.8986636,154.680991 92.0168766,155.796191 92.0168766,157.175846 Z M69.5025209,169.65012 L69.5025209,172.144974 C69.5025209,173.524629 68.3818063,174.639829 67.0009258,174.639829 C65.6200453,174.639829 64.4993307,173.524629 64.4993307,172.144974 L64.4993307,169.65012 C64.4993307,168.270465 65.6200453,167.155265 67.0009258,167.155265 C68.3818063,167.155265 69.5025209,168.270465 69.5025209,169.65012 Z M77.0073061,169.65012 L77.0073061,172.144974 C77.0073061,173.524629 75.8865915,174.639829 74.505711,174.639829 C73.1248306,174.639829 72.004116,173.524629 72.004116,172.144974 L72.004116,169.65012 C72.004116,168.270465 73.1248306,167.155265 74.505711,167.155265 C75.8865915,167.155265 77.0073061,168.270465 77.0073061,169.65012 Z M92.0168766,169.65012 L92.0168766,172.144974 C92.0168766,173.524629 90.8986636,174.639829 89.5152815,174.639829 C88.1318994,174.639829 87.0136864,173.524629 87.0136864,172.144974 L87.0136864,169.65012 C87.0136864,168.270465 88.1318994,167.155265 89.5152815,167.155265 C90.8986636,167.155265 92.0168766,168.270465 92.0168766,169.65012 Z M84.5120914,169.65012 L84.5120914,172.144974 C84.5120914,173.524629 83.3913768,174.639829 82.0104963,174.639829 C80.6296158,174.639829 79.5089012,173.524629 79.5089012,172.144974 L79.5089012,169.65012 C79.5089012,168.270465 80.6296158,167.155265 82.0104963,167.155265 C83.3913768,167.155265 84.5120914,168.270465 84.5120914,169.65012 Z M99.5216618,169.65012 L99.5216618,172.144974 C99.5216618,173.524629 98.4034488,174.639829 97.0200668,174.639829 C95.6366847,174.639829 94.5184717,173.524629 94.5184717,172.144974 L94.5184717,169.65012 C94.5184717,168.270465 95.6366847,167.155265 97.0200668,167.155265 C98.4034488,167.155265 99.5216618,168.270465 99.5216618,169.65012 Z M69.5025209,182.124393 L69.5025209,184.619248 C69.5025209,185.998902 68.3818063,187.114102 67.0009258,187.114102 C65.6200453,187.114102 64.4993307,185.998902 64.4993307,184.619248 L64.4993307,182.124393 C64.4993307,180.744738 65.6200453,179.629538 67.0009258,179.629538 C68.3818063,179.629538 69.5025209,180.744738 69.5025209,182.124393 Z M61.9977356,182.124393 L61.9977356,184.619248 C61.9977356,185.998902 60.877021,187.114102 59.4961406,187.114102 C58.1152601,187.114102 56.9945455,185.998902 56.9945455,184.619248 L56.9945455,182.124393 C56.9945455,180.744738 58.1152601,179.629538 59.4961406,179.629538 C60.877021,179.629538 61.9977356,180.744738 61.9977356,182.124393 Z M77.0073061,182.124393 L77.0073061,184.619248 C77.0073061,185.998902 75.8865915,187.114102 74.505711,187.114102 C73.1248306,187.114102 72.004116,185.998902 72.004116,184.619248 L72.004116,182.124393 C72.004116,180.744738 73.1248306,179.629538 74.505711,179.629538 C75.8865915,179.629538 77.0073061,180.744738 77.0073061,182.124393 Z M92.0168766,182.124393 L92.0168766,184.619248 C92.0168766,185.998902 90.8986636,187.114102 89.5152815,187.114102 C88.1318994,187.114102 87.0136864,185.998902 87.0136864,184.619248 L87.0136864,182.124393 C87.0136864,180.744738 88.1318994,179.629538 89.5152815,179.629538 C90.8986636,179.629538 92.0168766,180.744738 92.0168766,182.124393 Z M84.5120914,182.124393 L84.5120914,184.619248 C84.5120914,185.998902 83.3913768,187.114102 82.0104963,187.114102 C80.6296158,187.114102 79.5089012,185.998902 79.5089012,184.619248 L79.5089012,182.124393 C79.5089012,180.744738 80.6296158,179.629538 82.0104963,179.629538 C83.3913768,179.629538 84.5120914,180.744738 84.5120914,182.124393 Z M99.5216618,182.124393 L99.5216618,184.619248 C99.5216618,185.998902 98.4034488,187.114102 97.0200668,187.114102 C95.6366847,187.114102 94.5184717,185.998902 94.5184717,184.619248 L94.5184717,182.124393 C94.5184717,180.744738 95.6366847,179.629538 97.0200668,179.629538 C98.4034488,179.629538 99.5216618,180.744738 99.5216618,182.124393 Z M104.524852,187.114102 C103.14147,187.114102 102.023257,185.998902 102.023257,184.619248 L102.023257,182.124393 C102.023257,180.744738 103.14147,179.629538 104.524852,179.629538 C105.908234,179.629538 107.026447,180.744738 107.026447,182.124393 L107.026447,184.619248 C107.026447,185.998902 105.908234,187.114102 104.524852,187.114102 Z M69.5025209,194.598667 L69.5025209,197.093521 C69.5025209,198.473176 68.3818063,199.588376 67.0009258,199.588376 C65.6200453,199.588376 64.4993307,198.473176 64.4993307,197.093521 L64.4993307,194.598667 C64.4993307,193.219012 65.6200453,192.103812 67.0009258,192.103812 C68.3818063,192.103812 69.5025209,193.219012 69.5025209,194.598667 Z M77.0073061,194.598667 L77.0073061,197.093521 C77.0073061,198.473176 75.8865915,199.588376 74.505711,199.588376 C73.1248306,199.588376 72.004116,198.473176 72.004116,197.093521 L72.004116,194.598667 C72.004116,193.219012 73.1248306,192.103812 74.505711,192.103812 C75.8865915,192.103812 77.0073061,193.219012 77.0073061,194.598667 Z M92.0168766,194.598667 L92.0168766,197.093521 C92.0168766,198.473176 90.8986636,199.588376 89.5152815,199.588376 C88.1318994,199.588376 87.0136864,198.473176 87.0136864,197.093521 L87.0136864,194.598667 C87.0136864,193.219012 88.1318994,192.103812 89.5152815,192.103812 C90.8986636,192.103812 92.0168766,193.219012 92.0168766,194.598667 Z M84.5120914,194.598667 L84.5120914,197.093521 C84.5120914,198.473176 83.3913768,199.588376 82.0104963,199.588376 C80.6296158,199.588376 79.5089012,198.473176 79.5089012,197.093521 L79.5089012,194.598667 C79.5089012,193.219012 80.6296158,192.103812 82.0104963,192.103812 C83.3913768,192.103812 84.5120914,193.219012 84.5120914,194.598667 Z M99.5216618,194.598667 L99.5216618,197.093521 C99.5216618,198.473176 98.4034488,199.588376 97.0200668,199.588376 C95.6366847,199.588376 94.5184717,198.473176 94.5184717,197.093521 L94.5184717,194.598667 C94.5184717,193.219012 95.6366847,192.103812 97.0200668,192.103812 C98.4034488,192.103812 99.5216618,193.219012 99.5216618,194.598667 Z M77.0073061,107.278752 L77.0073061,109.773607 C77.0073061,111.153261 75.8865915,112.268461 74.505711,112.268461 C73.1248306,112.268461 72.004116,111.153261 72.004116,109.773607 L72.004116,107.278752 C72.004116,105.901592 73.1248306,104.783897 74.505711,104.783897 C75.8865915,104.783897 77.0073061,105.901592 77.0073061,107.278752 Z M84.5120914,107.278752 L84.5120914,109.773607 C84.5120914,111.153261 83.3913768,112.268461 82.0104963,112.268461 C80.6296158,112.268461 79.5089012,111.153261 79.5089012,109.773607 L79.5089012,107.278752 C79.5089012,105.901592 80.6296158,104.783897 82.0104963,104.783897 C83.3913768,104.783897 84.5120914,105.901592 84.5120914,107.278752 Z M77.0073061,94.8044786 L77.0073061,97.2993333 C77.0073061,98.6764931 75.8865915,99.794188 74.505711,99.794188 C73.1248306,99.794188 72.004116,98.6764931 72.004116,97.2993333 L72.004116,94.8044786 C72.004116,93.4273188 73.1248306,92.3096239 74.505711,92.3096239 C75.8865915,92.3096239 77.0073061,93.4273188 77.0073061,94.8044786 Z M84.5120914,94.8044786 L84.5120914,97.2993333 C84.5120914,98.6764931 83.3913768,99.794188 82.0104963,99.794188 C80.6296158,99.794188 79.5089012,98.6764931 79.5089012,97.2993333 L79.5089012,94.8044786 C79.5089012,93.4273188 80.6296158,92.3096239 82.0104963,92.3096239 C83.3913768,92.3096239 84.5120914,93.4273188 84.5120914,94.8044786 Z M87.0136864,97.2993333 L87.0136864,94.8044786 C87.0136864,93.4273188 88.1318994,92.3096239 89.5152815,92.3096239 C90.8986636,92.3096239 92.0168766,93.4273188 92.0168766,94.8044786 L92.0168766,97.2993333 C92.0168766,98.6764931 90.8986636,99.794188 89.5152815,99.794188 C88.1318994,99.794188 87.0136864,98.6764931 87.0136864,97.2993333 Z M92.0168766,117.258171 C93.3977571,117.258171 94.5184717,118.375866 94.5184717,119.753026 L94.5184717,122.24788 C94.5184717,123.62504 93.3977571,124.742735 92.0168766,124.742735 L89.5152815,124.742735 C88.134401,124.742735 87.0136864,123.62504 87.0136864,122.24788 L87.0136864,119.753026 C87.0136864,118.375866 88.134401,117.258171 89.5152815,117.258171 L92.0168766,117.258171 Z M99.5216618,154.680991 C100.902542,154.680991 102.023257,155.798686 102.023257,157.175846 L102.023257,159.670701 C102.023257,161.047861 100.902542,162.165555 99.5216618,162.165555 L97.0200668,162.165555 C95.6391863,162.165555 94.5184717,161.047861 94.5184717,159.670701 L94.5184717,157.175846 C94.5184717,155.798686 95.6391863,154.680991 97.0200668,154.680991 L99.5216618,154.680991 Z M107.026447,192.103812 C108.407328,192.103812 109.528042,193.221507 109.528042,194.598667 L109.528042,197.093521 C109.528042,198.470681 108.407328,199.588376 107.026447,199.588376 L104.524852,199.588376 C103.143972,199.588376 102.023257,198.470681 102.023257,197.093521 L102.023257,194.598667 C102.023257,193.221507 103.143972,192.103812 104.524852,192.103812 L107.026447,192.103812 Z M77.0073061,119.753026 L77.0073061,122.24788 C77.0073061,123.62504 75.8865915,124.742735 74.505711,124.742735 L72.004116,124.742735 C70.6232355,124.742735 69.5025209,123.62504 69.5025209,122.24788 L69.5025209,119.753026 C69.5025209,118.375866 70.6232355,117.258171 72.004116,117.258171 L74.505711,117.258171 C75.8865915,117.258171 77.0073061,118.375866 77.0073061,119.753026 Z M69.5025209,157.175846 L69.5025209,159.670701 C69.5025209,161.047861 68.3818063,162.165555 67.0009258,162.165555 L64.4993307,162.165555 C63.1184502,162.165555 61.9977356,161.047861 61.9977356,159.670701 L61.9977356,157.175846 C61.9977356,155.798686 63.1184502,154.680991 64.4993307,154.680991 L67.0009258,154.680991 C68.3818063,154.680991 69.5025209,155.798686 69.5025209,157.175846 Z M61.9977356,194.598667 L61.9977356,197.093521 C61.9977356,198.470681 60.877021,199.588376 59.4961406,199.588376 L56.9945455,199.588376 C55.613665,199.588376 54.4929504,198.470681 54.4929504,197.093521 L54.4929504,194.598667 C54.4929504,193.221507 55.613665,192.103812 56.9945455,192.103812 L59.4961406,192.103812 C60.877021,192.103812 61.9977356,193.221507 61.9977356,194.598667 Z M89.5653134,72.3507863 C89.5653134,73.7279461 88.4471004,74.845641 87.0637183,74.845641 L87.0136864,74.845641 L77.0073061,74.845641 C76.2718372,74.845641 75.5738921,74.5238047 75.0985891,73.9624624 C74.623286,73.4011201 74.4206568,72.6626431 74.5407334,71.9391353 L79.5439235,42.0008789 C79.7440511,40.8008538 80.7872163,39.9176752 82.0104963,39.9176752 C83.2337763,39.9176752 84.2769414,40.8008538 84.477069,42.0008789 L89.4002081,71.4576283 C89.5077767,71.7345572 89.5653134,72.0364346 89.5653134,72.3507863 Z" id="Shape"></path>
                    </g>
                </g>
                <g id="noun_883227_cc" transform="translate(606.337878, 4.176827)" fill-rule="nonzero" fill="#FFFFFF">
                    <g id="Group">
                        <path d="M80.0965974,78.5646277 L80.0965974,73.7848945 C80.0965974,72.395525 81.2255094,71.2679208 82.6164903,71.2679208 C84.0074713,71.2679208 85.1363833,72.395525 85.1363833,73.7848945 L85.1363833,78.5646277 C85.1363833,79.9539972 84.0074713,81.0816015 82.6164903,81.0816015 C81.2255094,81.0816015 80.0965974,79.9539972 80.0965974,78.5646277 Z M68.8427555,80.7921495 C69.2182195,80.9884734 69.6188825,81.0816015 70.0145057,81.0816015 C70.9191473,81.0816015 71.79607,80.5933085 72.2471308,79.7375375 L74.7670238,74.9578043 C75.4146363,73.7270041 74.9434163,72.206752 73.7111886,71.5573728 C72.478961,70.9079935 70.9519059,71.3811846 70.3068133,72.6119848 L67.7869203,77.3917179 C67.1393078,78.6225181 67.6105278,80.1427702 68.8427555,80.7921495 Z M92.9858498,79.7375375 C93.4369107,80.5933085 94.3138334,81.0816015 95.218475,81.0816015 C95.6140982,81.0816015 96.0147612,80.9884734 96.3902252,80.7921495 C97.619933,80.1452872 98.0961927,78.6225181 97.4460604,77.3917179 L94.9261674,72.6119848 C94.2785549,71.3786676 92.7540197,70.9105105 91.521792,71.5573728 C90.2895644,72.204235 89.8158245,73.7270041 90.4659569,74.9578043 L92.9858498,79.7375375 Z M103.040223,79.689715 C103.483724,80.5731728 104.373246,81.0816015 105.298047,81.0816015 C105.676031,81.0816015 106.061574,80.9960243 106.421919,80.8173192 C107.666746,80.1956267 108.170725,78.6829255 107.548311,77.4395404 L105.028418,72.4055929 C104.403485,71.1622079 102.889029,70.6588131 101.646722,71.2805056 C100.401895,71.9021982 99.8979162,73.4148994 100.52033,74.6582844 L103.040223,79.689715 Z M58.8110616,80.8173192 C59.1714063,80.9960243 59.5569499,81.0816015 59.9349339,81.0816015 C60.8597346,81.0816015 61.7492568,80.5731728 62.192758,79.689715 L64.7126509,74.6557674 C65.3350645,73.4123824 64.8310859,71.8996812 63.5862588,71.2779887 C62.3363919,70.6562961 60.826976,71.1622079 60.2045624,72.4030759 L57.6846695,77.4370235 C57.059736,78.6829255 57.5662345,80.1931097 58.8110616,80.8173192 Z M105.295527,186.794499 C106.689028,186.794499 107.81542,185.669412 107.81542,184.277525 L107.81542,166.912924 C107.81542,165.521037 106.689028,164.39595 105.295527,164.39595 C103.902026,164.39595 102.775634,165.521037 102.775634,166.912924 L102.775634,184.277525 C102.775634,185.669412 103.902026,186.794499 105.295527,186.794499 Z M59.9374538,186.794499 C61.3284347,186.794499 62.4573467,185.669412 62.4573467,184.277525 L62.4573467,166.658709 C62.4573467,165.266823 61.3284347,164.141735 59.9374538,164.141735 C58.5464729,164.141735 57.4175608,165.266823 57.4175608,166.658709 L57.4175608,184.277525 C57.4175608,185.669412 58.5464729,186.794499 59.9374538,186.794499 Z M47.337989,186.794499 C48.7289699,186.794499 49.857882,185.669412 49.857882,184.277525 L49.857882,166.658709 C49.857882,165.266823 48.7289699,164.141735 47.337989,164.141735 C45.9470081,164.141735 44.8180961,165.266823 44.8180961,166.658709 L44.8180961,184.277525 C44.8180961,185.669412 45.9470081,186.794499 47.337989,186.794499 Z M117.894992,186.794499 C119.288492,186.794499 120.414885,185.669412 120.414885,184.277525 L120.414885,166.658709 C120.414885,165.266823 119.288492,164.141735 117.894992,164.141735 C116.501491,164.141735 115.375099,165.266823 115.375099,166.658709 L115.375099,184.277525 C115.375099,185.669412 116.501491,186.794499 117.894992,186.794499 Z M90.1761692,186.794499 C91.56967,186.794499 92.6960621,185.669412 92.6960621,184.277525 L92.6960621,166.658709 C92.6960621,165.266823 91.56967,164.141735 90.1761692,164.141735 C88.7826684,164.141735 87.6562762,165.266823 87.6562762,166.658709 L87.6562762,184.277525 C87.6562762,185.669412 88.7826684,186.794499 90.1761692,186.794499 Z M75.0568115,186.794499 C76.4477924,186.794499 77.5767044,185.669412 77.5767044,184.277525 L77.5767044,166.658709 C77.5767044,165.266823 76.4477924,164.141735 75.0568115,164.141735 C73.6658306,164.141735 72.5369185,165.266823 72.5369185,166.658709 L72.5369185,184.277525 C72.5369185,185.669412 73.6658306,186.794499 75.0568115,186.794499 Z M122.934778,189.311473 L42.2982031,189.311473 C40.9072222,189.311473 39.7783102,190.43656 39.7783102,191.828447 C39.7783102,193.220333 40.9072222,194.345421 42.2982031,194.345421 L122.934778,194.345421 C124.328278,194.345421 125.454671,193.220333 125.454671,191.828447 C125.454671,190.43656 124.328278,189.311473 122.934778,189.311473 Z M165.044709,130.98564 C165.044709,176.313821 128.125757,213.190003 82.7450049,213.190003 C37.3642527,213.190003 0.445301083,176.313821 0.445301083,130.98564 C0.445301083,98.2020569 19.9039145,68.5848267 50.0191551,55.5368348 C51.2917011,54.9831006 52.7809578,55.5695554 53.3328144,56.8456611 C53.8871908,58.1217668 53.3000557,59.6042644 52.02247,60.1554816 C23.7492711,72.4055929 5.48256709,100.208085 5.48256709,130.98564 C5.48256709,139.024854 6.72235443,146.77965 9.0179769,154.07384 L34.7385243,154.07384 L34.7385243,149.039893 C34.7385243,147.648006 35.8674363,146.522919 37.2584172,146.522919 L39.7783102,146.522919 L39.7783102,128.904103 C38.3873293,128.904103 37.2584172,127.779016 37.2584172,126.387129 L37.2584172,118.889064 C37.2584172,117.497178 38.3873293,116.372091 39.7783102,116.372091 L42.2982031,116.372091 L42.2982031,103.734365 C40.9072222,103.734365 39.7783102,102.606761 39.7783102,101.217392 L39.7783102,93.6664702 C39.7783102,92.2771007 40.9072222,91.1494965 42.2982031,91.1494965 L43.0012532,91.1494965 L44.843295,85.629773 C44.9818891,77.8548411 48.3182274,71.9399528 51.6066877,67.1753214 C55.3008507,61.8242352 61.0890449,57.3062673 67.4971326,54.3941287 L67.4971326,45.8439689 C67.4971326,44.4545993 68.6260447,43.3269951 70.0170256,43.3269951 L75.0568115,43.3269951 L75.0568115,30.9963407 C75.0568115,30.9057296 75.0996497,30.8302204 75.1072093,30.7421263 L72.5369185,30.7421263 C71.1459376,30.7421263 70.0170256,29.6145221 70.0170256,28.2251526 C70.0170256,26.835783 71.1459376,25.7081788 72.5369185,25.7081788 L80.0965974,25.7081788 L80.0965974,25.0109771 C78.5972611,24.1401041 77.5767044,22.5342749 77.5767044,20.6742313 C77.5767044,18.8167046 78.5972611,17.2108754 80.0965974,16.3374855 L80.0965974,3.05541498 C80.0965974,1.66604546 81.2255094,0.538441221 82.6164903,0.538441221 C84.0074713,0.538441221 85.1363833,1.66604546 85.1363833,3.05541498 L85.1363833,16.3374855 C86.6357196,17.2083584 87.6562762,18.8141877 87.6562762,20.6742313 C87.6562762,22.5317579 86.6357196,24.1375872 85.1363833,25.0109771 L85.1363833,25.7081788 L92.6960621,25.7081788 C94.0895629,25.7081788 95.2159551,26.835783 95.2159551,28.2251526 C95.2159551,29.6145221 94.0895629,30.7421263 92.6960621,30.7421263 L90.1257713,30.7421263 C90.1358509,30.8302204 90.1761692,30.9057296 90.1761692,30.9963407 L90.1761692,43.3269951 L95.2159551,43.3269951 C96.6094559,43.3269951 97.7358481,44.4545993 97.7358481,45.8439689 L97.7358481,54.361408 C103.957464,57.1904865 109.579345,61.5649869 113.333985,66.833013 C116.76608,71.6429499 120.248572,77.6358644 120.387166,85.634807 L122.229208,91.1494965 L122.934778,91.1494965 C124.328278,91.1494965 125.454671,92.2771007 125.454671,93.6664702 L125.454671,101.217392 C125.454671,102.606761 124.328278,103.734365 122.934778,103.734365 L122.934778,116.372091 L125.454671,116.372091 C126.848171,116.372091 127.974563,117.497178 127.974563,118.889064 L127.974563,126.387129 C127.974563,127.779016 126.848171,128.904103 125.454671,128.904103 L125.454671,146.522919 L127.974563,146.522919 C129.368064,146.522919 130.494456,147.648006 130.494456,149.039893 L130.494456,154.07384 L156.469513,154.07384 C158.762616,146.77965 160.004923,139.024854 160.004923,130.98564 C160.004923,100.177881 141.71302,72.3653213 113.402023,60.1277949 C112.124437,59.5740607 111.539822,58.0940801 112.089158,56.8179744 C112.643535,55.5418687 114.132791,54.9629648 115.402818,55.5066311 C145.560896,68.5445552 165.044709,98.1718533 165.044709,130.98564 Z M130.494456,159.107788 C130.494456,159.253772 130.436499,159.379621 130.4113,159.518055 C130.388621,159.64642 130.40626,159.777303 130.363422,159.905669 L128.952282,164.141735 L152.498162,164.141735 C153.284368,162.498152 154.000018,160.814296 154.670309,159.107788 L130.494456,159.107788 Z M120.414885,128.904103 L117.894992,128.904103 L117.894992,146.522919 L120.414885,146.522919 L120.414885,128.904103 Z M105.295527,146.522919 L105.295527,128.904103 L100.255741,128.904103 L100.255741,146.522919 L105.295527,146.522919 Z M95.2159551,146.522919 L95.2159551,128.904103 L90.1761692,128.904103 L90.1761692,146.522919 L95.2159551,146.522919 Z M85.1363833,146.522919 L85.1363833,128.904103 L80.0965974,128.904103 L80.0965974,146.522919 L85.1363833,146.522919 Z M75.0568115,146.522919 L75.0568115,128.904103 L70.0170256,128.904103 L70.0170256,146.522919 L75.0568115,146.522919 Z M64.9772397,146.522919 L64.9772397,128.904103 L59.9374538,128.904103 L59.9374538,146.522919 L64.9772397,146.522919 Z M54.8976679,146.522919 L54.8976679,128.904103 L52.3777749,128.904103 L52.3777749,146.522919 L54.8976679,146.522919 Z M110.335313,146.522919 L112.855206,146.522919 L112.855206,128.904103 L110.335313,128.904103 L110.335313,146.522919 Z M44.8180961,98.7004178 L120.414885,98.7004178 L120.414885,96.183444 L44.8180961,96.183444 L44.8180961,98.7004178 Z M80.0965974,30.7421263 L80.0965974,43.3269951 L85.1363833,43.3269951 C85.1363833,43.3269951 85.1792215,30.8302204 85.1867812,30.7421263 L80.0965974,30.7421263 Z M72.5369185,52.4938135 C75.9009756,51.4618543 79.3229903,50.8779164 82.6164903,50.8779164 C85.9301496,50.8779164 89.3496443,51.4467524 92.6960621,52.4661268 L92.6960621,48.3609426 L72.5369185,48.3609426 L72.5369185,52.4938135 Z M50.0015159,83.5985752 L115.223905,83.5985752 C114.740086,79.108294 112.915683,74.9200497 109.22908,69.7527026 C103.513963,61.7311072 92.3205981,55.9118639 82.6164903,55.9118639 C72.8594648,55.9118639 61.3107954,61.9828046 55.7544315,70.0320867 C53.0934245,73.8906074 50.6088101,78.1921156 50.0015159,83.5985752 Z M48.3131876,91.1494965 L116.917273,91.1494965 L116.078149,88.6325227 L49.1548318,88.6325227 L48.3131876,91.1494965 Z M47.337989,116.372091 L49.8679615,116.372091 C49.8679615,116.354472 49.857882,116.33937 49.857882,116.319234 L49.857882,108.768313 C49.857882,107.376426 50.986794,106.251339 52.3777749,106.251339 C53.7687558,106.251339 54.8976679,107.376426 54.8976679,108.768313 L54.8976679,116.319234 C54.8976679,116.33937 54.8875883,116.354472 54.8875883,116.372091 L59.9500532,116.372091 C59.9475333,116.354472 59.9374538,116.33937 59.9374538,116.319234 L59.9374538,108.768313 C59.9374538,107.376426 61.0663658,106.251339 62.4573467,106.251339 C63.8483276,106.251339 64.9772397,107.376426 64.9772397,108.768313 L64.9772397,116.319234 C64.9772397,116.33937 64.9671601,116.354472 64.9671601,116.372091 L70.029625,116.372091 C70.0271052,116.354472 70.0170256,116.33937 70.0170256,116.319234 L70.0170256,108.768313 C70.0170256,107.376426 71.1459376,106.251339 72.5369185,106.251339 C73.9278994,106.251339 75.0568115,107.376426 75.0568115,108.768313 L75.0568115,116.319234 C75.0568115,116.33937 75.0467319,116.354472 75.0467319,116.372091 L80.1091969,116.372091 C80.106677,116.354472 80.0965974,116.33937 80.0965974,116.319234 L80.0965974,108.768313 C80.0965974,107.376426 81.2255094,106.251339 82.6164903,106.251339 C84.0074713,106.251339 85.1363833,107.376426 85.1363833,108.768313 L85.1363833,116.319234 C85.1363833,116.33937 85.1263037,116.354472 85.1263037,116.372091 L90.1761692,116.372091 L90.1761692,108.768313 C90.1761692,107.376426 91.3025613,106.251339 92.6960621,106.251339 C94.0895629,106.251339 95.2159551,107.376426 95.2159551,108.768313 L95.2159551,116.372091 L100.255741,116.372091 L100.255741,108.768313 C100.255741,107.376426 101.382133,106.251339 102.775634,106.251339 C104.169135,106.251339 105.295527,107.376426 105.295527,108.768313 L105.295527,116.372091 L110.335313,116.372091 L110.335313,108.768313 C110.335313,107.376426 111.461705,106.251339 112.855206,106.251339 C114.248707,106.251339 115.375099,107.376426 115.375099,108.768313 L115.375099,116.372091 L117.894992,116.372091 L117.894992,103.734365 L47.337989,103.734365 L47.337989,116.372091 Z M42.2982031,123.870155 L122.934778,123.870155 L122.934778,121.353182 L42.2982031,121.353182 L42.2982031,123.870155 Z M44.8180961,146.522919 L47.337989,146.522919 L47.337989,128.904103 L44.8180961,128.904103 L44.8180961,146.522919 Z M39.7783102,156.590814 L125.454671,156.590814 L125.454671,151.556867 L115.375099,151.556867 L49.857882,151.556867 L39.7783102,151.556867 L39.7783102,156.590814 Z M10.8197004,159.107788 C11.4899919,160.814296 12.2056415,162.498152 12.9918481,164.141735 L36.2806987,164.141735 L34.8645189,159.903152 C34.8191608,159.769752 34.8368001,159.633835 34.814121,159.497919 C34.7964818,159.367036 34.7385243,159.246221 34.7385243,159.107788 L10.8197004,159.107788 Z M15.6503352,169.175683 C28.9730092,192.437554 54.0484639,208.156056 82.7450049,208.156056 C111.441546,208.156056 136.514481,192.435037 149.837155,169.175683 L125.454671,169.175683 C124.645785,169.175683 123.884777,168.788069 123.408517,168.131139 C122.934778,167.474209 122.806263,166.628506 123.063292,165.863345 L124.479472,161.624762 L40.7560286,161.624762 L42.1696886,165.863345 C42.4267177,166.631022 42.2956832,167.476726 41.8219433,168.131139 C41.3482035,168.785552 40.5871958,169.175683 39.7783102,169.175683 L15.6503352,169.175683 Z" id="Shape"></path>
                    </g>
                </g>
                <g id="Group-4-Copy-2" transform="translate(386.500000, 126.500000) rotate(-270.000000) translate(-386.500000, -126.500000) translate(346.000000, 18.000000)" stroke="#FFFFFF" stroke-width="5" stroke-linecap="round">
                    <path d="M40.5576409,214.433068 L40.5576409,0.265298517" id="Line"></path>
                    <path d="M1.25113947,39.5438168 L40.5576409,0.265298517" id="Line"></path>
                    <path d="M40.5432929,39.5438168 L79.8497944,0.265298517" id="Line" transform="translate(60.203718, 19.897389) scale(-1, 1) translate(-60.203718, -19.897389) "></path>
                    <g id="Group-31" transform="translate(40.334659, 197.000000) rotate(-90.000000) translate(-40.334659, -197.000000) translate(20.334659, 157.000000)">
                        <path d="M0.251139466,40.2516634 L39.5576409,0.973145093" id="Line"></path>
                        <path d="M39.571989,79.5438168 L0.265487523,40.2652985" id="Line"></path>
                    </g>
                </g>
            </g>
        </g>
    </g>
</svg>